<?xml version="1.0" encoding="UTF-8" standalone="no"?>
<svg
   xmlns:dc="http://purl.org/dc/elements/1.1/"
   xmlns:cc="http://creativecommons.org/ns#"
   xmlns:rdf="http://www.w3.org/1999/02/22-rdf-syntax-ns#"
   xmlns:svg="http://www.w3.org/2000/svg"
   xmlns="http://www.w3.org/2000/svg"
   xmlns:sodipodi="http://sodipodi.sourceforge.net/DTD/sodipodi-0.dtd"
   xmlns:inkscape="http://www.inkscape.org/namespaces/inkscape"
   width="400pt"
   height="300pt"
   viewBox="0 0 400 300"
   version="1.1"
   id="svg2"
   inkscape:version="0.48.5 r10040"
   sodipodi:docname="nathan_shinkle_medical_infographic.svg">
  <metadata
     id="metadata136">
    <rdf:RDF>
      <cc:Work
         rdf:about="">
        <dc:format>image/svg+xml</dc:format>
        <dc:type
           rdf:resource="http://purl.org/dc/dcmitype/StillImage" />
        <dc:title></dc:title>
      </cc:Work>
    </rdf:RDF>
  </metadata>
  <defs
     id="defs134" />
  <sodipodi:namedview
     pagecolor="#ffffff"
     bordercolor="#666666"
     borderopacity="1"
     objecttolerance="10"
     gridtolerance="10"
     guidetolerance="10"
     inkscape:pageopacity="0"
     inkscape:pageshadow="2"
     inkscape:window-width="1091"
     inkscape:window-height="856"
     id="namedview132"
     showgrid="false"
     inkscape:zoom="1.2586667"
     inkscape:cx="610.85869"
     inkscape:cy="90.102526"
     inkscape:window-x="0"
     inkscape:window-y="0"
     inkscape:window-maximized="0"
     inkscape:current-layer="g3183" />
  <g
     id="#2e2e39ff"
     transform="translate(-394.06779,-244.0678)">
    <path
       d="M 0,0 400,0 400,300 0,300 0,0 m 67.14,43.64 c -0.69,0.24 -2.07,0.72 -2.76,0.96 -0.78,10.45 -0.03,20.93 -0.4,31.4 -0.29,6.44 2.16,12.58 2.15,18.99 -0.18,40 0.06,80.01 -0.11,120.01 0.02,5.7 -0.39,11.69 1.95,17.05 3.07,7.03 11.98,11.28 19.17,7.84 4.61,-0.75 9.34,-2.67 12.2,-6.53 2.53,-3.18 3.69,-7.26 3.66,-11.28 0.04,-9.31 -0.04,-18.62 0.01,-27.92 -0.02,-26.27 0.02,-52.55 -0.03,-78.82 -0.03,-10 0.18,-20 -0.13,-30 0.51,-0.03 1.54,-0.09 2.05,-0.12 C 105,71.1 105.2,56.95 104.79,42.83 96.88,42.2 88.93,42.64 81,42.51 76.37,42.58 71.56,41.89 67.14,43.64 M 169,47.49 c 0,2.56 0,5.11 -0.01,7.67 1.46,0.73 2.91,1.5 4.29,2.39 -0.92,6.01 -0.44,12.09 -0.51,18.14 -2.08,0.03 -4.17,0.06 -6.25,0.1 -0.01,2.41 -0.01,4.82 0.02,7.23 0.86,-0.01 2.6,-0.04 3.47,-0.06 0,0.73 0,2.19 0,2.92 -0.04,12.71 0.01,25.41 0,38.11 0.46,2.83 -3.06,3.76 -3.77,6.18 0.03,1.61 1,3.77 2.86,3.75 -0.06,0.77 -0.17,2.31 -0.23,3.08 -0.04,8.22 4.76,15.34 7.13,23 3.08,0 6.16,-0.01 9.24,-0.01 1.82,-0.01 3.65,-0.03 5.48,-0.06 2.29,-7.66 7.11,-14.75 6.91,-22.98 -0.13,-0.71 -0.39,-2.15 -0.52,-2.86 3.65,0.3 4.22,-6.17 1.15,-6.66 l -1.14,-0.25 c -0.01,-0.92 -0.01,-2.76 -0.01,-3.68 11.16,7.45 19.39,18.83 24.03,31.33 1.68,4.23 1.42,8.83 1.25,13.28 -21.46,0.27 -42.93,0.04 -64.39,0.11 -4.17,0.1 -8.44,-0.46 -12.5,0.76 l 1.19,0.23 c -0.09,2 -0.16,4 -0.21,6.01 5.79,0.03 11.57,0.09 17.36,-0.03 -0.1,0.68 -0.28,2.04 -0.38,2.72 0.03,0.89 0.1,2.67 0.13,3.56 13.29,0.26 26.63,-0.37 39.9,0.29 -2.32,1.15 -4.96,1.95 -6.76,3.91 -2.06,2.17 -1.6,5.4 -1.36,8.12 0.42,3.61 4.31,4.88 7.22,6 0.33,0.97 0.66,1.95 0.99,2.93 4.26,0.05 8.54,0.2 12.78,-0.39 l -0.87,-0.09 c 3.33,-3.73 7.78,-6.31 12.74,-7.08 0.65,-0.01 1.95,-0.02 2.59,-0.03 5.74,0.66 10.39,4.18 14.18,8.31 0.56,-11.81 0.09,-23.63 0.26,-35.44 -0.16,-5.38 0.67,-10.96 -1.17,-16.14 -7.04,-20.4 -21.86,-37.74 -40.08,-49.07 l -0.49,-0.72 c 0.92,-0.03 2.77,-0.09 3.69,-0.12 0.04,-2.63 0.05,-5.27 0.03,-7.91 0,-0.51 -0.02,-1.53 -0.03,-2.03 -3.64,0.02 -7.28,0 -10.91,-0.13 0.11,-1.98 0.19,-3.95 0.27,-5.93 -0.1,-0.74 -0.31,-2.24 -0.42,-2.99 1.33,0.03 2.65,0.05 3.98,0.07 0.1,-2.13 0.22,-4.26 0.41,-6.38 -2.05,-0.99 -4.33,-0.98 -6.55,-0.96 -0.03,-6.02 0.24,-12.04 -0.29,-18.04 1.18,-1.22 2.66,-2.18 3.56,-3.64 0.31,-1.8 0.4,-3.62 0.61,-5.43 -2.38,-1.46 -5.22,-1.12 -7.87,-1.16 -7,0.09 -14,-0.02 -21,0.07 m 140.4,2.04 c -7.49,0.99 -15.32,3.86 -20.41,9.63 -0.46,3.92 -0.1,7.89 -0.16,11.84 -0.02,52.02 0.04,104.04 -0.03,156.06 0.15,1.64 -0.23,3.71 1.38,4.78 13.66,12.1 36.81,11.02 49.16,-2.44 0.83,-3.39 0.31,-6.95 0.43,-10.41 -0.04,-48.66 -0.02,-97.33 -0.01,-145.99 -0.1,-4.17 0.38,-8.39 -0.33,-12.52 -7.31,-8.37 -19.11,-12.15 -30.03,-10.95 m -85.01,149.81 c -6.17,2.28 -9.98,9.22 -8.74,15.66 1.02,7.45 8.73,12.93 16.11,11.6 8.28,-0.9 13.98,-10.06 11.54,-17.94 -1.95,-7.96 -11.43,-12.36 -18.91,-9.32 m -69.84,24.88 c -5.32,2.41 -8.47,8.17 -8.66,13.89 -4.74,2.16 -8.77,5.58 -13,8.56 6.93,2.65 14.12,-0.75 21.21,0.06 2.13,0.16 4.22,0.63 6.34,0.9 3.21,0.5 6.31,-1.2 9.52,-0.65 5.37,0.67 11.02,2.14 16.28,0.15 1.48,-0.44 2.91,-1.18 4.47,-1.23 6.67,1.7 13.63,1.31 20.46,1.37 2.97,-0.15 6.14,0.4 8.87,-1.08 4.94,-2.48 9.75,-5.2 14.43,-8.14 0.02,-2.83 0.03,-5.67 0.04,-8.5 -6.33,0.89 -13.24,-0.35 -17.64,-5.34 -1.15,-0.91 -2.31,-1.99 -3.9,-1.73 -16.33,0.01 -32.67,0.03 -49.01,-0.01 -3.22,-0.07 -6.45,0.43 -9.41,1.75 z"
       id="path5"
       inkscape:connector-curvature="0"
       style="fill:#2e2e39" />
  </g>
  <g
     id="#9bc8c8ff">
    <path
       fill="#9bc8c8"
       opacity="1.00"
       d=" M 179.40 58.08 C 184.17 58.31 188.94 58.05 193.70 57.65 C 194.23 63.65 193.96 69.67 193.99 75.69 C 189.69 75.71 185.38 75.74 181.08 75.67 C 181.13 69.77 181.02 63.80 179.40 58.08 Z"
       id="path45" />
    <path
       fill="#9bc8c8"
       opacity="1.00"
       d=" M 69.21 85.90 C 71.80 85.66 74.40 85.50 77.00 85.43 C 77.00 90.94 76.99 96.45 76.99 101.97 C 75.33 101.98 73.66 102.00 72.00 102.02 C 72.01 106.45 72.04 110.89 71.84 115.32 C 71.23 115.26 70.01 115.13 69.41 115.07 C 69.49 105.35 69.78 95.61 69.21 85.90 Z"
       id="path47" />
    <path
       fill="#9bc8c8"
       opacity="1.00"
       d=" M 81.02 85.43 C 88.29 85.50 95.58 85.68 102.85 85.34 C 103.16 95.34 102.95 105.34 102.98 115.34 C 102.29 115.37 100.91 115.41 100.21 115.44 C 100.26 110.96 100.25 106.49 100.23 102.02 C 93.81 101.99 87.40 101.99 80.99 102.01 C 80.98 96.48 80.99 90.95 81.02 85.43 Z"
       id="path49" />
    <path
       fill="#9bc8c8"
       opacity="1.00"
       d=" M 180.05 85.92 C 185.55 85.92 191.06 85.92 196.57 85.95 C 196.49 87.93 196.41 89.90 196.30 91.88 C 191.83 91.69 187.36 92.07 183.00 93.06 C 190.99 94.74 199.16 93.72 207.24 94.04 C 207.26 96.68 207.25 99.32 207.21 101.95 C 206.29 101.98 204.44 102.04 203.52 102.07 C 202.89 100.96 202.27 99.85 201.67 98.72 C 199.92 101.40 197.37 103.31 194.20 103.97 C 193.59 101.60 193.01 99.23 192.44 96.86 C 192.19 98.51 191.95 100.16 191.70 101.82 C 189.24 101.85 186.77 101.89 184.31 101.91 C 183.75 99.16 183.18 96.41 182.59 93.67 C 182.43 96.70 182.30 99.72 182.16 102.75 C 186.57 103.12 191.34 102.59 195.40 104.64 C 197.82 111.81 195.82 119.56 196.04 126.96 C 190.78 126.55 185.50 126.70 180.23 126.66 C 179.94 113.08 180.33 99.50 180.05 85.92 Z"
       id="path51" />
    <path
       fill="#9bc8c8"
       opacity="1.00"
       d=" M 198.80 104.08 C 200.54 103.65 202.27 103.22 204.01 102.79 C 222.23 114.12 237.05 131.46 244.09 151.86 C 245.93 157.04 245.10 162.62 245.26 168.00 C 245.09 179.81 245.56 191.63 245.00 203.44 C 241.21 199.31 236.56 195.79 230.82 195.13 C 230.84 187.52 230.80 179.90 230.89 172.29 C 227.81 173.77 224.55 175.09 221.07 175.06 C 201.99 175.16 182.91 174.67 163.84 175.19 C 158.05 175.31 152.27 175.25 146.48 175.22 C 146.53 173.21 146.60 171.21 146.69 169.21 C 148.77 169.57 150.88 169.83 153.01 169.85 C 170.67 169.70 188.34 169.88 206.01 169.77 C 214.19 169.65 222.41 170.30 230.57 169.26 C 228.86 168.81 227.15 168.38 225.41 168.11 C 225.84 162.60 225.49 156.92 223.24 151.80 C 219.01 141.83 213.13 132.28 204.65 125.36 C 202.20 123.06 198.79 120.92 198.56 117.23 C 198.15 112.85 198.64 108.45 198.80 104.08 Z"
       id="path53" />
    <path
       fill="#9bc8c8"
       opacity="1.00"
       d=" M 180.79 137.03 C 186.40 137.03 192.02 136.99 197.63 136.95 C 197.83 145.18 193.01 152.27 190.72 159.93 C 188.89 159.96 187.06 159.98 185.24 159.99 C 182.22 152.72 180.05 144.98 180.79 137.03 Z"
       id="path55" />
    <path
       fill="#9bc8c8"
       opacity="1.00"
       d=" M 69.38 194.31 C 70.01 194.30 71.27 194.28 71.90 194.28 C 72.20 203.86 71.77 213.46 72.09 223.04 C 72.20 227.87 74.75 232.66 79.03 235.04 C 84.50 238.37 92.20 237.30 96.45 232.46 C 99.44 229.48 100.32 225.12 100.27 221.04 C 100.25 212.10 100.29 203.15 100.19 194.21 C 100.89 194.20 102.30 194.17 103.01 194.16 C 102.96 203.46 103.04 212.77 103.00 222.08 C 103.03 226.10 101.87 230.18 99.34 233.36 C 96.48 237.22 91.75 239.14 87.14 239.89 C 78.71 240.03 70.20 233.79 69.62 225.04 C 69.20 214.80 69.79 204.55 69.38 194.31 Z"
       id="path57" />
    <path
       fill="#9bc8c8"
       opacity="1.00"
       d=" M 145.89 238.11 C 146.08 232.39 149.23 226.63 154.55 224.22 C 165.67 225.39 176.85 224.82 188.00 224.91 C 197.62 224.74 207.29 225.47 216.87 224.21 C 221.27 229.20 228.18 230.44 234.51 229.55 C 234.50 232.38 234.49 235.22 234.47 238.05 C 204.95 238.00 175.41 237.87 145.89 238.11 Z"
       id="path59" />
  </g>
  <g
     id="g3175">
    <g
       id="#da8e53ff">
      <path
         id="path37"
         d=" M 309.40 49.53 C 320.32 48.33 332.12 52.11 339.43 60.48 C 340.14 64.61 339.66 68.83 339.76 73.00 C 339.75 121.66 339.73 170.33 339.77 218.99 C 339.65 222.45 340.17 226.01 339.34 229.40 C 326.99 242.86 303.84 243.94 290.18 231.84 C 288.57 230.77 288.95 228.70 288.80 227.06 C 288.87 175.04 288.81 123.02 288.83 71.00 C 288.89 67.05 288.53 63.08 288.99 59.16 C 294.08 53.39 301.91 50.52 309.40 49.53 M 291.70 114.36 C 305.81 120.18 322.07 119.72 336.22 114.32 C 328.83 113.78 321.41 114.07 314.00 114.03 C 306.57 114.09 299.12 113.80 291.70 114.36 M 292.62 169.72 C 299.39 170.42 306.21 170.12 313.00 170.17 C 320.44 170.13 327.91 170.47 335.33 169.77 C 328.18 166.03 319.85 166.06 311.99 165.95 C 305.44 166.32 298.45 166.30 292.62 169.72 Z"
         opacity="1.00"
         fill="#da8e53" />
    </g>
    <g
       id="#f1ae7dff">
      <path
         id="path85"
         d=" M 291.70 114.36 C 299.12 113.80 306.57 114.09 314.00 114.03 C 321.41 114.07 328.83 113.78 336.22 114.32 C 322.07 119.72 305.81 120.18 291.70 114.36 Z"
         opacity="1.00"
         fill="#f1ae7d" />
    </g>
    <g
       id="#b3642aff">
      <path
         id="path116"
         d=" M 292.62 169.72 C 298.45 166.30 305.44 166.32 311.99 165.95 C 319.85 166.06 328.18 166.03 335.33 169.77 C 327.91 170.47 320.44 170.13 313.00 170.17 C 306.21 170.12 299.39 170.42 292.62 169.72 Z"
         opacity="1.00"
         fill="#b3642a" />
    </g>
  </g>
  <g
     id="g3146">
    <g
       id="#b1d7d6ff">
      <path
         id="path16"
         d=" M 169.00 47.49 C 176.00 47.40 183.00 47.51 190.00 47.42 C 192.65 47.46 195.49 47.12 197.87 48.58 C 192.40 49.19 186.90 49.24 181.40 49.33 C 181.05 51.09 180.71 52.85 180.36 54.61 C 176.57 54.80 172.78 54.97 168.99 55.16 C 169.00 52.60 169.00 50.05 169.00 47.49 Z"
         opacity="1.00"
         fill="#b1d7d6" />
      <path
         id="path18"
         d=" M 173.28 57.55 C 175.31 57.77 177.35 57.96 179.40 58.08 C 181.02 63.80 181.13 69.77 181.08 75.67 C 185.38 75.74 189.69 75.71 193.99 75.69 C 196.21 75.67 198.49 75.66 200.54 76.65 C 191.22 77.99 181.78 76.91 172.41 77.44 C 171.95 79.27 171.49 81.11 171.03 82.94 L 170.01 82.96 C 169.14 82.98 167.40 83.01 166.54 83.02 C 166.51 80.61 166.51 78.20 166.52 75.79 C 168.60 75.75 170.69 75.72 172.77 75.69 C 172.84 69.64 172.36 63.56 173.28 57.55 Z"
         opacity="1.00"
         fill="#b1d7d6" />
      <path
         id="path20"
         d=" M 170.01 85.88 C 173.36 85.90 176.70 85.91 180.05 85.92 C 180.33 99.50 179.94 113.08 180.23 126.66 C 185.50 126.70 190.78 126.55 196.04 126.96 L 197.12 127.18 L 198.26 127.43 C 190.41 128.75 182.44 128.27 174.52 128.40 C 174.29 130.28 174.06 132.15 173.83 134.03 C 172.25 134.03 170.67 134.01 169.10 133.92 C 167.24 133.94 166.27 131.78 166.24 130.17 C 166.95 127.75 170.47 126.82 170.01 123.99 C 170.02 111.29 169.97 98.59 170.01 85.88 Z"
         opacity="1.00"
         fill="#b1d7d6" />
      <path
         id="path22"
         d=" M 168.87 137.00 C 172.84 137.00 176.81 137.02 180.79 137.03 C 180.05 144.98 182.22 152.72 185.24 159.99 C 182.16 159.99 179.08 160.00 176.00 160.00 C 173.63 152.34 168.83 145.22 168.87 137.00 Z"
         opacity="1.00"
         fill="#b1d7d6" />
    </g>
    <g
       id="#9ac7c7ff">
      <path
         id="path28"
         d=" M 181.40 49.33 C 186.90 49.24 192.40 49.19 197.87 48.58 C 197.66 50.39 197.57 52.21 197.26 54.01 C 196.36 55.47 194.88 56.43 193.70 57.65 C 188.94 58.05 184.17 58.31 179.40 58.08 C 177.35 57.96 175.31 57.77 173.28 57.55 C 171.90 56.66 170.45 55.89 168.99 55.16 C 172.78 54.97 176.57 54.80 180.36 54.61 C 180.71 52.85 181.05 51.09 181.40 49.33 Z"
         opacity="1.00"
         fill="#9ac7c7" />
      <path
         id="path30"
         d=" M 172.41 77.44 C 181.78 76.91 191.22 77.99 200.54 76.65 C 200.35 78.77 200.23 80.90 200.13 83.03 C 198.80 83.01 197.48 82.99 196.15 82.96 C 187.78 82.76 179.40 82.72 171.03 82.94 C 171.49 81.11 171.95 79.27 172.41 77.44 Z"
         opacity="1.00"
         fill="#9ac7c7" />
      <path
         id="path32"
         d=" M 203.49 181.76 C 207.42 182.98 211.79 185.52 212.07 190.12 C 212.70 195.49 207.39 198.57 203.92 201.65 C 207.78 201.72 211.64 201.86 215.49 202.24 L 216.36 202.33 C 212.12 202.92 207.84 202.77 203.58 202.72 C 203.25 201.74 202.92 200.76 202.59 199.79 C 199.68 198.67 195.79 197.40 195.37 193.79 C 195.13 191.07 194.67 187.84 196.73 185.67 C 198.53 183.71 201.17 182.91 203.49 181.76 Z"
         opacity="1.00"
         fill="#9ac7c7" />
      <path
         id="path34"
         d=" M 224.39 199.34 C 231.87 196.30 241.35 200.70 243.30 208.66 C 245.74 216.54 240.04 225.70 231.76 226.60 C 224.38 227.93 216.67 222.45 215.65 215.00 C 214.41 208.56 218.22 201.62 224.39 199.34 M 228.29 201.53 C 224.05 201.96 220.23 205.05 219.04 209.17 C 216.62 215.68 222.00 223.66 229.00 223.69 C 235.26 224.04 241.20 218.39 240.80 212.07 C 240.64 205.78 234.46 200.76 228.29 201.53 Z"
         opacity="1.00"
         fill="#9ac7c7" />
    </g>
    <g
       id="#79a7a6ff">
      <path
         opacity="1.00"
         fill="#79a7a6"
         id="path62"
         d=" M 170.01 82.96 L 171.03 82.94 C 179.40 82.72 187.78 82.76 196.15 82.96 C 196.26 83.71 196.47 85.21 196.57 85.95 C 191.06 85.92 185.55 85.92 180.05 85.92 C 176.70 85.91 173.36 85.90 170.01 85.88 C 170.01 85.15 170.01 83.69 170.01 82.96 Z" />
    </g>
    <g
       id="#bde5e4ff">
      <path
         id="path68"
         d=" M 183.00 93.06 C 187.36 92.07 191.83 91.69 196.30 91.88 C 199.93 92.01 203.57 92.03 207.21 92.01 C 207.22 92.51 207.24 93.53 207.24 94.04 C 199.16 93.72 190.99 94.74 183.00 93.06 Z"
         opacity="1.00"
         fill="#bde5e4" />
    </g>
    <g
       id="#77a5a4ff">
      <path
         id="path71"
         d=" M 182.59 93.67 C 183.18 96.41 183.75 99.16 184.31 101.91 C 186.77 101.89 189.24 101.85 191.70 101.82 C 191.95 100.16 192.19 98.51 192.44 96.86 C 193.01 99.23 193.59 101.60 194.20 103.97 C 197.37 103.31 199.92 101.40 201.67 98.72 C 202.27 99.85 202.89 100.96 203.52 102.07 L 204.01 102.79 C 202.27 103.22 200.54 103.65 198.80 104.08 C 198.64 108.45 198.15 112.85 198.56 117.23 C 198.79 120.92 202.20 123.06 204.65 125.36 C 213.13 132.28 219.01 141.83 223.24 151.80 C 225.49 156.92 225.84 162.60 225.41 168.11 C 224.66 168.11 223.15 168.11 222.39 168.11 C 222.56 163.66 222.82 159.06 221.14 154.83 C 216.50 142.33 208.27 130.95 197.11 123.50 C 197.11 124.42 197.11 126.26 197.12 127.18 L 196.04 126.96 C 195.82 119.56 197.82 111.81 195.40 104.64 C 191.34 102.59 186.57 103.12 182.16 102.75 C 182.30 99.72 182.43 96.70 182.59 93.67 Z"
         opacity="1.00"
         fill="#77a5a4" />
    </g>
    <g
       id="#9ac8c8ff">
      <path
         id="path106"
         d=" M 198.26 127.43 C 201.33 127.92 200.76 134.39 197.11 134.09 C 189.35 134.09 181.59 133.87 173.83 134.03 C 174.06 132.15 174.29 130.28 174.52 128.40 C 182.44 128.27 190.41 128.75 198.26 127.43 Z"
         opacity="1.00"
         fill="#9ac8c8" />
      <path
         id="path108"
         d=" M 163.46 177.91 C 185.15 178.29 206.85 177.66 228.53 178.15 C 228.56 183.82 228.50 189.49 228.23 195.16 C 223.27 195.93 218.82 198.51 215.49 202.24 C 211.64 201.86 207.78 201.72 203.92 201.65 C 207.39 198.57 212.70 195.49 212.07 190.12 C 211.79 185.52 207.42 182.98 203.49 181.76 C 190.22 181.10 176.88 181.73 163.59 181.47 C 163.56 180.58 163.49 178.80 163.46 177.91 Z"
         opacity="1.00"
         fill="#9ac8c8" />
    </g>
    <g
       id="#75a4a3ff">
      <path
         id="path111"
         d=" M 169.10 133.92 C 170.67 134.01 172.25 134.03 173.83 134.03 C 181.59 133.87 189.35 134.09 197.11 134.09 C 197.24 134.80 197.50 136.24 197.63 136.95 C 192.02 136.99 186.40 137.03 180.79 137.03 C 176.81 137.02 172.84 137.00 168.87 137.00 C 168.93 136.23 169.04 134.69 169.10 133.92 Z"
         opacity="1.00"
         fill="#75a4a3" />
      <path
         id="path113"
         d=" M 228.29 201.53 C 234.46 200.76 240.64 205.78 240.80 212.07 C 241.20 218.39 235.26 224.04 229.00 223.69 C 222.00 223.66 216.62 215.68 219.04 209.17 C 220.23 205.05 224.05 201.96 228.29 201.53 Z"
         opacity="1.00"
         fill="#75a4a3" />
    </g>
    <g
       id="#bae2e1ff">
      <path
         id="path119"
         d=" M 145.50 168.98 C 149.56 167.76 153.83 168.32 158.00 168.22 C 179.46 168.15 200.93 168.38 222.39 168.11 C 223.15 168.11 224.66 168.11 225.41 168.11 C 227.15 168.38 228.86 168.81 230.57 169.26 C 222.41 170.30 214.19 169.65 206.01 169.77 C 188.34 169.88 170.67 169.70 153.01 169.85 C 150.88 169.83 148.77 169.57 146.69 169.21 L 145.50 168.98 Z"
         opacity="1.00"
         fill="#bae2e1" />
      <path
         id="path121"
         d=" M 154.55 224.22 C 157.51 222.90 160.74 222.40 163.96 222.47 C 180.30 222.51 196.64 222.49 212.97 222.48 C 214.56 222.22 215.72 223.30 216.87 224.21 C 207.29 225.47 197.62 224.74 188.00 224.91 C 176.85 224.82 165.67 225.39 154.55 224.22 Z"
         opacity="1.00"
         fill="#bae2e1" />
    </g>
    <g
       id="#76a4a3ff">
      <path
         id="path124"
         d=" M 221.07 175.06 C 224.55 175.09 227.81 173.77 230.89 172.29 C 230.80 179.90 230.84 187.52 230.82 195.13 C 230.18 195.14 228.88 195.15 228.23 195.16 C 228.50 189.49 228.56 183.82 228.53 178.15 C 206.85 177.66 185.15 178.29 163.46 177.91 C 163.56 177.23 163.74 175.87 163.84 175.19 C 182.91 174.67 201.99 175.16 221.07 175.06 Z"
         opacity="1.00"
         fill="#76a4a3" />
    </g>
  </g>
  <g
     id="g3113">
    <g
       id="#e23b41ff">
      <path
         id="path8"
         d=" M 67.14 43.64 C 71.56 41.89 76.37 42.58 81.00 42.51 C 88.93 42.64 96.88 42.20 104.79 42.83 C 105.20 56.95 105.00 71.10 104.90 85.22 C 104.39 85.25 103.36 85.31 102.85 85.34 C 95.58 85.68 88.29 85.50 81.02 85.43 C 79.68 85.41 78.34 85.41 77.00 85.43 C 74.40 85.50 71.80 85.66 69.21 85.90 C 68.08 84.17 67.14 82.24 67.24 80.11 C 67.14 67.96 67.45 55.80 67.14 43.64 M 73.33 48.38 C 71.89 57.96 73.19 67.66 72.58 77.28 C 71.34 77.85 70.12 78.43 68.89 79.01 C 80.33 79.53 91.80 79.48 103.24 79.00 C 102.01 78.47 100.79 77.94 99.56 77.41 C 99.64 69.59 99.66 61.76 99.77 53.93 C 99.92 51.93 99.27 50.03 98.37 48.27 C 97.06 58.35 98.62 68.54 97.47 78.63 C 96.79 77.50 95.91 76.38 95.90 75.00 C 95.42 66.15 96.49 57.24 95.42 48.42 C 94.83 49.86 94.13 51.32 94.17 52.92 C 94.03 59.97 94.47 67.03 94.27 74.08 C 94.37 75.74 93.52 77.20 92.66 78.55 C 91.77 68.72 92.75 58.83 92.15 48.98 L 90.87 48.97 C 90.47 58.57 90.79 68.17 90.73 77.77 C 90.33 77.77 89.53 77.79 89.13 77.79 C 88.92 68.23 89.26 58.66 88.97 49.10 C 88.50 49.09 87.55 49.08 87.08 49.07 C 86.93 57.07 87.13 65.07 87.12 73.07 C 87.24 75.05 86.69 76.98 85.54 78.61 C 84.36 68.57 86.07 58.42 84.62 48.40 C 82.48 58.01 84.34 67.95 83.62 77.71 C 83.09 77.77 82.04 77.91 81.52 77.98 C 81.67 69.96 81.64 61.95 81.78 53.94 C 81.93 51.91 81.36 49.96 80.19 48.31 L 80.07 49.67 C 79.48 49.68 78.30 49.71 77.71 49.72 L 77.60 48.41 C 76.91 49.83 76.09 51.28 76.17 52.92 C 76.01 59.97 76.46 67.03 76.24 74.08 C 76.33 75.73 75.47 77.16 74.67 78.53 C 73.28 68.52 75.77 58.24 73.33 48.38 M 76.31 80.14 C 76.34 81.44 76.37 82.74 76.39 84.04 C 78.18 84.10 79.97 84.15 81.76 84.21 C 81.77 82.81 81.79 81.41 81.81 80.02 C 79.98 80.05 78.14 80.09 76.31 80.14 Z"
         opacity="1.00"
         fill="#e23b41" />
      <path
         id="path10"
         d=" M 93.55 122.47 C 94.35 123.32 95.17 124.16 95.98 125.00 C 95.16 125.83 94.35 126.67 93.55 127.52 C 92.82 126.67 92.09 125.83 91.34 125.00 C 92.09 124.16 92.82 123.32 93.55 122.47 Z"
         opacity="1.00"
         fill="#e23b41" />
    </g>
    <g
       id="#a72c35ff">
      <path
         id="path25"
         d=" M 73.33 48.38 C 75.77 58.24 73.28 68.52 74.67 78.53 C 75.47 77.16 76.33 75.73 76.24 74.08 C 76.46 67.03 76.01 59.97 76.17 52.92 C 76.09 51.28 76.91 49.83 77.60 48.41 L 77.71 49.72 C 78.91 59.33 76.42 69.29 79.17 78.67 C 80.62 69.07 79.19 59.32 80.07 49.67 L 80.19 48.31 C 81.36 49.96 81.93 51.91 81.78 53.94 C 81.64 61.95 81.67 69.96 81.52 77.98 C 82.04 77.91 83.09 77.77 83.62 77.71 C 84.34 67.95 82.48 58.01 84.62 48.40 C 86.07 58.42 84.36 68.57 85.54 78.61 C 86.69 76.98 87.24 75.05 87.12 73.07 C 87.13 65.07 86.93 57.07 87.08 49.07 C 87.55 49.08 88.50 49.09 88.97 49.10 C 89.26 58.66 88.92 68.23 89.13 77.79 C 89.53 77.79 90.33 77.77 90.73 77.77 C 90.79 68.17 90.47 58.57 90.87 48.97 L 92.15 48.98 C 92.75 58.83 91.77 68.72 92.66 78.55 C 93.52 77.20 94.37 75.74 94.27 74.08 C 94.47 67.03 94.03 59.97 94.17 52.92 C 94.13 51.32 94.83 49.86 95.42 48.42 C 96.49 57.24 95.42 66.15 95.90 75.00 C 95.91 76.38 96.79 77.50 97.47 78.63 C 98.62 68.54 97.06 58.35 98.37 48.27 C 99.27 50.03 99.92 51.93 99.77 53.93 C 99.66 61.76 99.64 69.59 99.56 77.41 C 100.79 77.94 102.01 78.47 103.24 79.00 C 91.80 79.48 80.33 79.53 68.89 79.01 C 70.12 78.43 71.34 77.85 72.58 77.28 C 73.19 67.66 71.89 57.96 73.33 48.38 Z"
         opacity="1.00"
         fill="#a72c35" />
    </g>
    <g
       id="#f3aba2ff">
      <path
         id="path40"
         d=" M 77.71 49.72 C 78.30 49.71 79.48 49.68 80.07 49.67 C 79.19 59.32 80.62 69.07 79.17 78.67 C 76.42 69.29 78.91 59.33 77.71 49.72 Z"
         opacity="1.00"
         fill="#f3aba2" />
      <path
         id="path42"
         d=" M 76.31 80.14 C 78.14 80.09 79.98 80.05 81.81 80.02 C 81.79 81.41 81.77 82.81 81.76 84.21 C 79.97 84.15 78.18 84.10 76.39 84.04 C 76.37 82.74 76.34 81.44 76.31 80.14 Z"
         opacity="1.00"
         fill="#f3aba2" />
    </g>
    <g
       id="#d5e6dbff">
      <path
         id="path65"
         d=" M 77.00 85.43 C 78.34 85.41 79.68 85.41 81.02 85.43 C 80.99 90.95 80.98 96.48 80.99 102.01 C 79.66 101.99 78.32 101.98 76.99 101.97 C 76.99 96.45 77.00 90.94 77.00 85.43 Z"
         opacity="1.00"
         fill="#d5e6db" />
    </g>
    <g
       id="#571812ff">
      <path
         id="path74"
         d=" M 72.00 102.02 C 73.66 102.00 75.33 101.98 76.99 101.97 C 76.99 106.48 77.00 111.00 77.10 115.52 C 75.35 115.51 73.59 115.47 71.84 115.32 C 72.04 110.89 72.01 106.45 72.00 102.02 Z"
         opacity="1.00"
         fill="#571812" />
    </g>
    <g
       id="#b99d8fff">
      <path
         id="path77"
         d=" M 76.99 101.97 C 78.32 101.98 79.66 101.99 80.99 102.01 C 81.00 106.51 81.00 111.01 80.98 115.51 C 79.69 115.51 78.40 115.52 77.10 115.52 C 77.00 111.00 76.99 106.48 76.99 101.97 Z"
         opacity="1.00"
         fill="#b99d8f" />
    </g>
    <g
       id="#561712ff">
      <path
         id="path80"
         d=" M 80.99 102.01 C 87.40 101.99 93.81 101.99 100.23 102.02 C 100.25 106.49 100.26 110.96 100.21 115.44 C 93.80 115.58 87.39 115.46 80.98 115.51 C 81.00 111.01 81.00 106.51 80.99 102.01 Z"
         opacity="1.00"
         fill="#561712" />
      <path
         id="path82"
         d=" M 71.90 194.28 C 73.60 194.25 75.30 194.24 77.00 194.24 C 77.00 203.76 76.95 213.28 77.06 222.80 C 78.35 222.79 79.65 222.79 80.94 222.79 C 81.07 213.28 80.98 203.76 81.00 194.25 C 87.40 194.24 93.79 194.29 100.19 194.21 C 100.29 203.15 100.25 212.10 100.27 221.04 C 100.32 225.12 99.44 229.48 96.45 232.46 C 92.20 237.30 84.50 238.37 79.03 235.04 C 74.75 232.66 72.20 227.87 72.09 223.04 C 71.77 213.46 72.20 203.86 71.90 194.28 Z"
         opacity="1.00"
         fill="#561712" />
    </g>
    <g
       id="#fffae8ff">
      <path
         id="path88"
         d=" M 69.38 194.31 C 69.19 167.90 69.13 141.48 69.41 115.07 C 70.01 115.13 71.23 115.26 71.84 115.32 C 73.59 115.47 75.35 115.51 77.10 115.52 C 78.40 115.52 79.69 115.51 80.98 115.51 C 87.39 115.46 93.80 115.58 100.21 115.44 C 100.91 115.41 102.29 115.37 102.98 115.34 C 103.03 141.61 102.99 167.89 103.01 194.16 C 102.30 194.17 100.89 194.20 100.19 194.21 C 93.79 194.29 87.40 194.24 81.00 194.25 C 79.67 194.24 78.33 194.24 77.00 194.24 C 75.30 194.24 73.60 194.25 71.90 194.28 C 71.27 194.28 70.01 194.30 69.38 194.31 M 77.36 119.53 C 76.80 123.25 76.84 127.04 77.22 130.78 C 78.69 129.31 79.02 127.21 79.67 125.33 C 79.91 127.17 80.23 129.01 80.61 130.83 C 82.13 127.35 82.00 123.21 80.66 119.69 C 80.41 120.99 79.93 123.59 79.68 124.88 C 79.02 123.05 78.35 121.22 77.36 119.53 M 82.74 120.57 C 82.75 123.71 82.75 126.85 82.75 129.99 L 84.24 129.99 C 84.25 126.85 84.26 123.70 84.26 120.55 L 82.74 120.57 M 85.73 121.09 C 85.12 122.48 85.58 124.45 86.51 125.62 C 88.08 125.15 87.34 121.16 85.73 121.09 M 89.23 121.54 C 88.35 122.14 88.06 124.76 89.61 124.45 C 90.47 123.85 90.75 121.22 89.23 121.54 M 93.55 122.47 C 92.82 123.32 92.09 124.16 91.34 125.00 C 92.09 125.83 92.82 126.67 93.55 127.52 C 94.35 126.67 95.16 125.83 95.98 125.00 C 95.17 124.16 94.35 123.32 93.55 122.47 M 88.07 126.15 C 86.27 126.32 86.16 129.47 87.87 129.83 C 89.45 129.57 89.82 126.41 88.07 126.15 Z"
         opacity="1.00"
         fill="#fffae8" />
    </g>
    <g
       id="#e3361dff">
      <path
         id="path91"
         d=" M 77.36 119.53 C 78.35 121.22 79.02 123.05 79.68 124.88 C 79.93 123.59 80.41 120.99 80.66 119.69 C 82.00 123.21 82.13 127.35 80.61 130.83 C 80.23 129.01 79.91 127.17 79.67 125.33 C 79.02 127.21 78.69 129.31 77.22 130.78 C 76.84 127.04 76.80 123.25 77.36 119.53 Z"
         opacity="1.00"
         fill="#e3361d" />
    </g>
    <g
       id="#df1a00ff">
      <path
         id="path94"
         d=" M 82.74 120.57 L 84.26 120.55 C 84.26 123.70 84.25 126.85 84.24 129.99 L 82.75 129.99 C 82.75 126.85 82.75 123.71 82.74 120.57 Z"
         opacity="1.00"
         fill="#df1a00" />
    </g>
    <g
       id="#e22d13ff">
      <path
         id="path97"
         d=" M 85.73 121.09 C 87.34 121.16 88.08 125.15 86.51 125.62 C 85.58 124.45 85.12 122.48 85.73 121.09 Z"
         opacity="1.00"
         fill="#e22d13" />
    </g>
    <g
       id="#e12107ff">
      <path
         id="path100"
         d=" M 89.23 121.54 C 90.75 121.22 90.47 123.85 89.61 124.45 C 88.06 124.76 88.35 122.14 89.23 121.54 Z"
         opacity="1.00"
         fill="#e12107" />
    </g>
    <g
       id="#e12308ff">
      <path
         id="path103"
         d=" M 88.07 126.15 C 89.82 126.41 89.45 129.57 87.87 129.83 C 86.16 129.47 86.27 126.32 88.07 126.15 Z"
         opacity="1.00"
         fill="#e12308" />
    </g>
    <g
       id="#b89d8fff">
      <path
         id="path127"
         d=" M 77.00 194.24 C 78.33 194.24 79.67 194.24 81.00 194.25 C 80.98 203.76 81.07 213.28 80.94 222.79 C 79.65 222.79 78.35 222.79 77.06 222.80 C 76.95 213.28 77.00 203.76 77.00 194.24 Z"
         opacity="1.00"
         fill="#b89d8f" />
    </g>
  </g>
  <g
     id="g3183"
     transform="translate(246.73832,61.12279)">
    <rect
       style="fill:#2e2e39;fill-opacity:1;stroke:none"
       id="rect3217"
       width="205.5854"
       height="170.90201"
       x="206.46408"
       y="77.092003"
       inkscape:export-filename="/Users/rotoxl/dev/proyectotest/images/cat-1.png"
       inkscape:export-xdpi="42.445118"
       inkscape:export-ydpi="42.445118" />
    <g
       id="g3185" />
    <g
       id="g3243"
       transform="matrix(0.98477719,0,0,1.0074938,0.23569446,16.335371)"
       inkscape:export-filename="/Users/rotoxl/dev/proyectotest/images/cat-1.png"
       inkscape:export-xdpi="42.445118"
       inkscape:export-ydpi="42.445118">
      <g
         transform="matrix(0.52959344,-0.84825161,0.84825161,0.52959344,24.921913,334.6302)"
         id="g3198">
        <path
           d="m 309.4,49.53 c 10.92,-1.2 22.72,2.58 30.03,10.95 0.71,4.13 0.23,8.35 0.33,12.52 -0.01,48.66 -0.03,97.33 0.01,145.99 -0.12,3.46 0.4,7.02 -0.43,10.41 -12.35,13.46 -35.5,14.54 -49.16,2.44 -1.61,-1.07 -1.23,-3.14 -1.38,-4.78 0.07,-52.02 0.01,-104.04 0.03,-156.06 0.06,-3.95 -0.3,-7.92 0.16,-11.84 5.09,-5.77 12.92,-8.64 20.41,-9.63 m -17.7,64.83 c 14.11,5.82 30.37,5.36 44.52,-0.04 -7.39,-0.54 -14.81,-0.25 -22.22,-0.29 -7.43,0.06 -14.88,-0.23 -22.3,0.33 m 0.92,55.36 c 6.77,0.7 13.59,0.4 20.38,0.45 7.44,-0.04 14.91,0.3 22.33,-0.4 -7.15,-3.74 -15.48,-3.71 -23.34,-3.82 -6.55,0.37 -13.54,0.35 -19.37,3.77 z"
           id="path3187"
           inkscape:connector-curvature="0"
           style="fill:#da8e53" />
        <g
           id="g3189">
          <path
             d="m 291.7,114.36 c 7.42,-0.56 14.87,-0.27 22.3,-0.33 7.41,0.04 14.83,-0.25 22.22,0.29 -14.15,5.4 -30.41,5.86 -44.52,0.04 z"
             id="path3191"
             inkscape:connector-curvature="0"
             style="fill:#f1ae7d" />
        </g>
        <g
           id="g3193">
          <path
             d="m 292.62,169.72 c 5.83,-3.42 12.82,-3.4 19.37,-3.77 7.86,0.11 16.19,0.08 23.34,3.82 -7.42,0.7 -14.89,0.36 -22.33,0.4 -6.79,-0.05 -13.61,0.25 -20.38,-0.45 z"
             id="path3195"
             inkscape:connector-curvature="0"
             style="fill:#b3642a" />
        </g>
      </g>
      <g
         id="g3205"
         transform="matrix(0.51768962,0.85556851,-0.85556851,0.51768962,275.42181,-197.87523)">
        <path
           style="fill:#da8e53"
           inkscape:connector-curvature="0"
           id="path3207"
           d="m 309.4,49.53 c 10.92,-1.2 22.72,2.58 30.03,10.95 0.71,4.13 0.23,8.35 0.33,12.52 -0.01,48.66 -0.03,97.33 0.01,145.99 -0.12,3.46 0.4,7.02 -0.43,10.41 -12.35,13.46 -35.5,14.54 -49.16,2.44 -1.61,-1.07 -1.23,-3.14 -1.38,-4.78 0.07,-52.02 0.01,-104.04 0.03,-156.06 0.06,-3.95 -0.3,-7.92 0.16,-11.84 5.09,-5.77 12.92,-8.64 20.41,-9.63 m -17.7,64.83 c 14.11,5.82 30.37,5.36 44.52,-0.04 -7.39,-0.54 -14.81,-0.25 -22.22,-0.29 -7.43,0.06 -14.88,-0.23 -22.3,0.33 m 0.92,55.36 c 6.77,0.7 13.59,0.4 20.38,0.45 7.44,-0.04 14.91,0.3 22.33,-0.4 -7.15,-3.74 -15.48,-3.71 -23.34,-3.82 -6.55,0.37 -13.54,0.35 -19.37,3.77 z" />
        <g
           id="g3209">
          <path
             style="fill:#f1ae7d"
             inkscape:connector-curvature="0"
             id="path3211"
             d="m 291.7,114.36 c 7.42,-0.56 14.87,-0.27 22.3,-0.33 7.41,0.04 14.83,-0.25 22.22,0.29 -14.15,5.4 -30.41,5.86 -44.52,0.04 z" />
        </g>
        <g
           id="g3213">
          <path
             style="fill:#b3642a"
             inkscape:connector-curvature="0"
             id="path3215"
             d="m 292.62,169.72 c 5.83,-3.42 12.82,-3.4 19.37,-3.77 7.86,0.11 16.19,0.08 23.34,3.82 -7.42,0.7 -14.89,0.36 -22.33,0.4 -6.79,-0.05 -13.61,0.25 -20.38,-0.45 z" />
        </g>
      </g>
    </g>
  </g>
</svg>
