<?xml version="1.0" encoding="UTF-8" standalone="no"?>
<svg
   xmlns:dc="http://purl.org/dc/elements/1.1/"
   xmlns:cc="http://creativecommons.org/ns#"
   xmlns:rdf="http://www.w3.org/1999/02/22-rdf-syntax-ns#"
   xmlns:svg="http://www.w3.org/2000/svg"
   xmlns="http://www.w3.org/2000/svg"
   xmlns:sodipodi="http://sodipodi.sourceforge.net/DTD/sodipodi-0.dtd"
   xmlns:inkscape="http://www.inkscape.org/namespaces/inkscape"
   width="480pt"
   height="300pt"
   viewBox="0 0 480 300"
   version="1.1"
   id="svg2"
   inkscape:version="0.48.5 r10040"
   sodipodi:docname="addthis.svg">
  <metadata
     id="metadata44">
    <rdf:RDF>
      <cc:Work
         rdf:about="">
        <dc:format>image/svg+xml</dc:format>
        <dc:type
           rdf:resource="http://purl.org/dc/dcmitype/StillImage" />
      </cc:Work>
    </rdf:RDF>
  </metadata>
  <defs
     id="defs42" />
  <sodipodi:namedview
     pagecolor="#696969"
     bordercolor="#666666"
     borderopacity="1"
     objecttolerance="10"
     gridtolerance="10"
     guidetolerance="10"
     inkscape:pageopacity="1"
     inkscape:pageshadow="2"
     inkscape:window-width="970"
     inkscape:window-height="904"
     id="namedview40"
     showgrid="false"
     inkscape:snap-grids="true"
     inkscape:snap-to-guides="true"
     inkscape:zoom="1.2586667"
     inkscape:cx="154.11082"
     inkscape:cy="657.74312"
     inkscape:window-x="0"
     inkscape:window-y="0"
     inkscape:window-maximized="0"
     inkscape:current-layer="layer3" />
  <g
     inkscape:groupmode="layer"
     id="layer4"
     inkscape:label="fondo"
     style="display:inline" />
  <g
     id="#696969ff"
     transform="translate(-34.156853,27.864801)">
    <path
       d="m 157.42,219.4 c 5.14,-2.82 11.8,-2.59 16.97,0.08 3.79,1.95 5.77,6.05 6.09,10.17 -0.94,0.01 -2.82,0.04 -3.76,0.05 -0.68,-8.75 -12.42,-11.64 -18.56,-6.61 -2.88,2.56 -3.11,8.21 0.59,10.14 6.23,2.84 13.68,2.51 19.43,6.52 5.13,3.67 4.35,12.25 -0.6,15.74 -3.89,2.76 -8.93,3.08 -13.54,2.74 -4.33,-0.35 -9.03,-1.98 -11.36,-5.89 -1.53,-2.27 -1.62,-5.08 -1.9,-7.7 0.94,-0.01 2.81,-0.03 3.75,-0.03 0.31,3.47 1.46,7.35 4.91,8.92 4.98,2.23 11.51,2.46 15.95,-1.09 3.08,-2.33 3.42,-7.59 0.1,-9.86 -6.06,-3.94 -14.06,-3.03 -20.09,-7.02 -5.27,-4.08 -3.66,-13.21 2.02,-16.16 z"
       id="path11"
       inkscape:connector-curvature="0"
       style="fill:#696969" />
    <path
       d="m 307.63,218.24 c 1.27,0.01 2.54,0.01 3.81,0.02 0,12.01 -0.01,24.03 0,36.05 7.34,0 14.67,-0.01 22,0.01 0,0.81 0,2.43 0,3.24 -8.61,0.01 -17.21,0 -25.82,0 0.01,-13.11 0,-26.21 0.01,-39.32 z"
       id="path13"
       inkscape:connector-curvature="0"
       style="fill:#696969" />
    <path
       d="m 280.25,220.62 c 1.16,0 2.33,0 3.5,0 0,2.83 0,5.66 0.01,8.49 1.91,0.01 3.82,0.01 5.74,0.02 0,0.74 0,2.24 0,2.99 -1.92,0 -3.83,0 -5.75,0.01 0.02,5.96 -0.02,11.92 -0.01,17.89 0.11,1.47 -0.07,3.13 0.85,4.4 1.54,0.67 3.28,0.35 4.91,0.5 0,0.73 -0.01,2.19 -0.01,2.92 -2.42,-0.13 -5.03,0.33 -7.26,-0.83 -1.77,-0.96 -1.88,-3.2 -1.97,-4.97 -0.07,-6.64 0.02,-13.27 -0.01,-19.91 -1.65,-0.01 -3.3,-0.01 -4.94,-0.01 0,-0.75 0,-2.25 0,-2.99 1.64,-0.01 3.29,-0.02 4.93,-0.02 0,-2.83 0.01,-5.66 0.01,-8.49 z"
       id="path15"
       inkscape:connector-curvature="0"
       style="fill:#696969" />
    <path
       d="m 188.94,233.95 c 3.17,-6.87 14.61,-7.94 17.69,-0.49 2.75,-5.09 9.73,-6.55 14.62,-3.8 2.85,1.67 3.71,5.18 3.72,8.27 0.1,6.55 0,13.09 0.02,19.64 -1.16,-0.01 -2.33,-0.01 -3.49,-0.01 -0.06,-6.54 0.11,-13.07 -0.05,-19.6 0,-2.58 -1.05,-5.73 -3.9,-6.31 -4.09,-1.43 -9.13,0.84 -9.84,5.34 -1.21,6.78 -0.31,13.73 -0.59,20.57 -1.16,0 -2.33,0 -3.5,0 -0.02,-6.19 0.03,-12.39 0.01,-18.58 0.02,-2.67 -0.46,-6.06 -3.29,-7.19 -4.49,-1.85 -9.94,1.26 -10.59,6.09 -0.96,6.5 -0.2,13.13 -0.44,19.68 -1.19,0 -2.37,0 -3.56,0 0,-9.48 0,-18.95 0,-28.43 0.82,-0.01 2.45,-0.02 3.26,-0.02 -0.02,1.61 -0.04,3.22 -0.07,4.84 z"
       id="path17"
       inkscape:connector-curvature="0"
       style="fill:#696969" />
    <path
       d="m 237.7,228.86 c 5.26,-1.34 13.35,-0.68 14.65,5.81 0.73,6.5 -0.09,13.08 0.46,19.6 0.77,0.08 2.3,0.26 3.07,0.35 -0.03,0.74 -0.1,2.22 -0.13,2.97 -1.53,-0.11 -3.12,0.07 -4.58,-0.46 -1.68,-0.75 -1.45,-2.86 -1.88,-4.33 -3.18,5.58 -10.78,7.04 -16.25,4.15 -4.83,-2.75 -4.94,-11.2 0.25,-13.64 3.99,-2 8.57,-1.82 12.86,-2.64 4.21,-0.3 3.69,-6.86 0.54,-8.37 -3.1,-1.44 -7.06,-1.44 -10.01,0.37 -1.86,1.07 -2.11,3.36 -2.71,5.2 -0.87,0 -2.61,-0.02 -3.48,-0.02 0.47,-4.08 2.9,-8.18 7.21,-8.99 m -2.73,17.21 c -3.05,1.81 -2.36,6.66 0.54,8.28 3.89,2.23 9.41,0.8 12.04,-2.77 1.98,-2.59 1.46,-6.02 1.67,-9.06 -4.66,1.54 -9.92,1.07 -14.25,3.55 z"
       id="path19"
       inkscape:connector-curvature="0"
       style="fill:#696969" />
    <path
       d="m 388.94,233.97 c 3.71,-6.64 14.1,-7.65 19.14,-2.04 3.11,3.31 3.72,8.03 3.93,12.37 -7.37,0.04 -14.73,-0.03 -22.1,0.05 0.5,2.75 0.82,5.75 2.78,7.93 2.67,3.45 7.92,4.05 11.6,1.91 2.21,-1.31 3.1,-3.85 4.17,-6.04 1.14,0.03 2.29,0.06 3.44,0.09 -1.14,3.34 -2.57,7 -5.92,8.7 -5.6,2.69 -13.68,1.78 -17.04,-3.96 -3.24,-5.73 -3.22,-13.28 0,-19.01 m 4.65,-0.39 c -2.2,2.01 -2.9,5.01 -3.67,7.77 6.21,0.04 12.41,0.04 18.62,0 -0.62,-2.69 -1.13,-5.65 -3.26,-7.61 -3.01,-3.2 -8.58,-3.26 -11.69,-0.16 z"
       id="path21"
       inkscape:connector-curvature="0"
       style="fill:#696969" />
    <path
       d="m 435.25,230.24 c 4.12,-2.39 9.66,-2.69 13.83,-0.26 2.67,1.56 3.59,4.66 4.18,7.49 -0.87,0.01 -2.6,0.03 -3.47,0.04 -0.63,-6.08 -8.48,-7.98 -12.86,-4.61 -1.88,1.44 -2.05,4.74 0.01,6.11 4.35,3.08 10.47,1.94 14.65,5.37 3.76,3.07 3.02,9.63 -1.15,12 -4.5,2.57 -10.49,2.68 -15.06,0.22 -3.05,-1.63 -3.99,-5.14 -4.61,-8.27 1.16,-0.01 2.31,-0.02 3.48,-0.03 0.54,7.17 10.19,9.27 14.97,4.89 1.99,-1.8 1.62,-5.45 -0.78,-6.71 -4.4,-2.4 -9.94,-1.89 -14.08,-4.89 -3.7,-2.72 -3.05,-9.14 0.89,-11.35 z"
       id="path23"
       inkscape:connector-curvature="0"
       style="fill:#696969" />
    <path
       d="m 259.25,229.12 c 0.82,0 2.46,0 3.28,0 -0.03,2.2 -0.06,4.39 -0.14,6.58 1.9,-4.35 6.13,-7.16 10.9,-7.14 0.01,0.87 0.02,2.6 0.02,3.47 -4.66,0.18 -9.5,3.06 -10.27,7.97 -0.66,5.82 -0.12,11.71 -0.29,17.56 -0.87,0 -2.62,0.01 -3.5,0.01 -0.01,-9.48 0,-18.97 0,-28.45 z"
       id="path25"
       inkscape:connector-curvature="0"
       style="fill:#696969" />
    <path
       d="m 336.53,237.85 c 0.5,-3.82 2.55,-7.79 6.57,-8.8 5.17,-1.46 13.05,-1.27 15.09,4.8 1.32,6.61 -0.2,13.46 0.8,20.11 0.97,0.39 1.98,0.69 3.03,0.88 0.19,2.13 -0.79,3.26 -2.93,2.71 -2.79,0.29 -3.59,-2.57 -3.76,-4.75 -3.09,5.43 -10.28,6.93 -15.75,4.42 -5.26,-2.42 -5.63,-11.3 -0.31,-13.88 3.98,-2.02 8.58,-1.85 12.87,-2.67 4.28,-0.25 3.75,-6.89 0.56,-8.39 -3.12,-1.42 -7.09,-1.42 -10.03,0.43 -1.83,1.08 -2.05,3.34 -2.65,5.17 -0.88,-0.01 -2.62,-0.03 -3.49,-0.03 m 4.47,8.23 c -3.02,1.82 -2.34,6.65 0.55,8.27 4.09,2.33 9.97,0.67 12.42,-3.33 1.56,-2.54 1.1,-5.67 1.33,-8.5 -4.68,1.53 -9.95,1.07 -14.3,3.56 z"
       id="path27"
       inkscape:connector-curvature="0"
       style="fill:#696969" />
    <path
       d="m 360.69,229.12 c 1.26,0 2.52,0 3.78,0.01 3.09,8.04 6.19,16.06 9.3,24.09 2.92,-8.02 5.81,-16.05 8.7,-24.08 1.18,-0.02 2.37,-0.02 3.56,-0.03 -4.56,11.76 -8.61,23.74 -13.55,35.34 -1.38,3.69 -5.63,3.76 -8.92,3.54 -0.02,-0.74 -0.07,-2.23 -0.09,-2.97 1.8,-0.22 4.02,0.39 5.44,-1.05 1.6,-1.88 2.22,-4.33 3.14,-6.57 -3.85,-9.4 -7.56,-18.86 -11.36,-28.28 z"
       id="path29"
       inkscape:connector-curvature="0"
       style="fill:#696969" />
    <path
       d="m 415.94,229.12 c 0.82,0 2.46,0 3.27,0 -0.02,2.2 -0.06,4.4 -0.14,6.6 1.91,-4.35 6.13,-7.17 10.91,-7.15 0,0.87 0.02,2.61 0.02,3.48 -4.57,0.17 -9.28,2.9 -10.2,7.66 -0.81,5.9 -0.16,11.91 -0.36,17.85 -0.88,0 -2.63,0 -3.5,0 0,-9.48 0,-18.96 0,-28.44 z"
       id="path31"
       inkscape:connector-curvature="0"
       style="fill:#696969" />
  </g>
  <g
     id="#fd6d4bff">
    <path
       fill="#fd6d4b"
       opacity="1.00"
       d=" M 47.80 218.25 C 50.77 218.25 53.74 218.25 56.71 218.25 C 61.60 231.35 66.51 244.45 71.39 257.56 C 68.38 257.56 65.37 257.56 62.35 257.56 C 61.37 254.64 60.37 251.72 59.38 248.81 C 54.52 248.81 49.66 248.81 44.80 248.81 C 43.78 251.73 42.75 254.65 41.72 257.56 C 38.80 257.56 35.88 257.56 32.96 257.56 C 37.90 244.46 42.86 231.36 47.80 218.25 M 47.08 242.31 C 50.42 242.31 53.77 242.31 57.11 242.31 C 55.47 237.52 53.82 232.73 52.18 227.94 C 50.46 232.72 48.78 237.52 47.08 242.31 Z"
       id="path34" />
    <path
       fill="#fd6d4b"
       opacity="1.00"
       d=" M 92.69 218.25 C 95.31 218.25 97.94 218.25 100.56 218.25 C 100.56 231.35 100.56 244.46 100.56 257.56 C 98.05 257.56 95.54 257.56 93.04 257.56 C 93.06 256.71 93.11 255.01 93.14 254.15 C 88.42 260.60 77.29 259.27 73.81 252.23 C 70.27 245.54 70.69 235.92 76.76 230.81 C 81.42 226.98 88.99 227.60 92.77 232.38 C 92.61 227.67 92.71 222.96 92.69 218.25 M 84.36 234.51 C 78.88 236.40 78.62 243.90 80.52 248.48 C 82.03 252.75 88.47 253.89 91.15 250.13 C 93.35 246.80 93.36 242.38 92.28 238.66 C 91.36 235.34 87.60 233.44 84.36 234.51 Z"
       id="path36" />
    <path
       fill="#fd6d4b"
       opacity="1.00"
       d=" M 125.69 218.24 C 128.32 218.24 130.94 218.25 133.56 218.25 C 133.56 231.36 133.56 244.46 133.56 257.56 C 131.07 257.56 128.58 257.56 126.09 257.56 C 126.12 256.70 126.18 254.97 126.21 254.11 C 121.67 260.35 111.01 259.42 107.22 252.87 C 103.52 246.67 103.58 237.93 108.27 232.25 C 112.60 227.03 121.52 226.98 125.78 232.34 C 125.61 227.64 125.71 222.94 125.69 218.24 M 117.42 234.50 C 111.94 236.35 111.64 243.82 113.50 248.40 C 114.99 252.74 121.47 253.91 124.18 250.13 C 126.40 246.74 126.41 242.24 125.24 238.47 C 124.25 235.26 120.59 233.49 117.42 234.50 Z"
       id="path38" />
  </g>
  <path
     sodipodi:type="arc"
     style="fill:#ffffff;fill-opacity:1;stroke:none"
     id="path3043"
     sodipodi:cx="289.39352"
     sodipodi:cy="149.96028"
     sodipodi:rx="4.5683265"
     sodipodi:ry="4.3697033"
     d="m 293.96185,149.96028 a 4.5683265,4.3697033 0 1 1 -9.13665,0 4.5683265,4.3697033 0 1 1 9.13665,0 z"
     transform="matrix(0.87559416,0,0,0.91539396,-187.57985,9.1556041)" />
  <g
     inkscape:groupmode="layer"
     id="layer1"
     inkscape:label="desktop">
    <path
       transform="translate(-34.156853,27.864801)"
       id="path3827"
       d="m 61.273764,-338.15197 c 2.54,-0.5 5.15,-0.24 7.72,-0.28 46.059996,0.05 92.109996,-0.04 138.159996,0.04 2.73,-0.28 4.33,2.5 3.94,4.93 -0.04,31.38 0.04,62.76999 -0.04,94.14999 0.26,2.24 -1.7,4.26 -3.95,4.04 -16.73,0.1 -33.47,0 -50.2,0.04 0,3.79 0,7.59 0,11.39 2.05,0.11 4.22,-0.24 6.2,0.44 2.28,1.16 2.14,4.88 -0.25,5.84 -1.59,0.35 -3.22,0.27 -4.82,0.3 -16.37,-0.11 -32.74,0.04 -49.1,-0.07 -2.77,0.47 -4.68,-3.12 -2.92,-5.21 1.76,-2.05 4.85,-1 7.19,-1.3 0.01,-3.8 0.01,-7.6 0,-11.39 -16.049996,0.01 -32.109996,-0.04 -48.169996,0.03 -1.71,-0.12 -3.81,0.22 -5.06,-1.24 -1.26,-1.32 -0.9,-3.31 -1.03,-4.97 0.05,-30.69 0,-61.38999 0.02,-92.07999 -0.09,-1.81 0.41,-3.96 2.31,-4.66 m 9.06,10.36 c 0,24.33 0,48.65999 0,72.98999 42.959996,0.01 85.919996,0.01 128.869996,0 0.01,-24.33 0.01,-48.65999 0,-72.98999 -42.95,-0.01 -85.91,-0.01 -128.869996,0 m 62.849996,79.52999 c -2.65,1.04 -3.3,4.96 -1.04,6.74 2.09,2.01 5.95,0.74 6.53,-2.08 0.89,-3.04 -2.61,-6.05 -5.49,-4.66 z"
       inkscape:connector-curvature="0"
       style="fill:#ffffff" />
  </g>
  <g
     inkscape:groupmode="layer"
     id="layer2"
     inkscape:label="tablet">
    <path
       style="fill:#ffffff"
       inkscape:connector-curvature="0"
       id="path3829"
       d="m 148.54527,-260.88894 c 0.87695,-0.2844 1.81315,-0.27256 2.73158,-0.29626 13.66973,0.0355 27.34537,-0.0119 41.01508,0.0238 3.12856,-0.13035 5.79496,2.80268 5.56388,5.88385 0.006,19.96833 0,39.94259 0.006,59.91093 0.2548,3.12264 -2.44715,6.10901 -5.62313,5.95495 -14.03707,0.006 -28.08009,0.0355 -42.11718,-0.0119 -3.05746,0.0119 -5.59351,-2.91525 -5.33279,-5.92532 0,-19.97426 0,-39.94259 0,-59.91093 -0.16591,-2.44716 1.41616,-4.87062 3.75665,-5.62906 m 4.12995,7.60218 c 0,18.65293 0,37.30584 0,55.95875 12.43134,0 24.86266,0 37.29399,0 0,-18.65291 0,-37.30582 0,-55.95875 -12.43133,0 -24.86265,0 -37.29399,0 m 17.18937,57.88449 c -1.48726,0.82954 -1.47541,3.21744 0.0178,4.04107 1.54058,1.06655 3.85739,-0.38515 3.6026,-2.22793 -0.0711,-1.70056 -2.21607,-2.79675 -3.62037,-1.81314 z" />
    <rect
       style="fill:#696969;fill-opacity:1;stroke:none;opacity:0"
       id="rect3831"
       width="38.505547"
       height="57.388065"
       x="152.24725"
       y="-253.20108" />
  </g>
  <g
     inkscape:groupmode="layer"
     id="layer3"
     inkscape:label="mobile">
    <path
       sodipodi:nodetypes="ccccccccccccccc"
       d="m 199.1196,-228.57977 c 0.3965,-0.1548 0.81979,-0.14835 1.23505,-0.16126 6.18058,0.0194 12.36383,-0.006 18.54441,0.0129 1.41454,-0.0709 2.62012,1.52549 2.51563,3.20256 0.003,10.86869 0,21.74062 0.003,32.60931 0.1152,1.69965 -1.10645,3.32512 -2.54243,3.24126 -6.34667,0.003 -12.69603,0.0193 -19.04271,-0.006 -1.38239,0.006 -2.52903,-1.58676 -2.41115,-3.22513 0,-10.87192 0,-21.74062 0,-32.60931 -0.075,-1.33199 0.6403,-2.65107 1.69852,-3.06388 m 1.8673,4.13784 c 0,10.15272 -0.22471,19.0695 -0.22471,29.22221 5.62066,0 12.02782,0 17.64848,0 0,-10.15271 -0.5618,-19.06949 -0.5618,-29.22221 -5.62066,0 -0.14412,-0.0204 -5.76478,-0.0204"
       id="path3854"
       inkscape:connector-curvature="0"
       style="fill:#ffffff" />
    <rect
       y="-224.39529"
       x="200.7934"
       height="29.55076"
       width="17.40976"
       id="rect3856"
       style="fill:#ffffff;fill-opacity:1;stroke:none;opacity:0" />
    <path
       sodipodi:type="arc"
       style="fill:#696969;fill-opacity:1;stroke:none;display:inline"
       id="path3896"
       sodipodi:cx="281.31653"
       sodipodi:cy="-236.22789"
       sodipodi:rx="3.0898468"
       sodipodi:ry="3.0898468"
       d="m 284.40638,-236.22789 a 3.0898468,3.0898468 0 1 1 -6.1797,0 3.0898468,3.0898468 0 1 1 6.1797,0 z"
       transform="matrix(0.67272727,0,0,0.67272727,20.169478,-33.728982)" />
  </g>
</svg>
