<?xml version="1.0" encoding="UTF-8" standalone="no"?>
<svg
   xmlns:dc="http://purl.org/dc/elements/1.1/"
   xmlns:cc="http://creativecommons.org/ns#"
   xmlns:rdf="http://www.w3.org/1999/02/22-rdf-syntax-ns#"
   xmlns:svg="http://www.w3.org/2000/svg"
   xmlns="http://www.w3.org/2000/svg"
   xmlns:sodipodi="http://sodipodi.sourceforge.net/DTD/sodipodi-0.dtd"
   xmlns:inkscape="http://www.inkscape.org/namespaces/inkscape"
   width="308pt"
   height="218pt"
   viewBox="0 0 308 218"
   version="1.1"
   id="svg2"
   inkscape:version="0.48.5 r10040"
   sodipodi:docname="screen.svg">
  <metadata
     id="metadata17">
    <rdf:RDF>
      <cc:Work
         rdf:about="">
        <dc:format>image/svg+xml</dc:format>
        <dc:type
           rdf:resource="http://purl.org/dc/dcmitype/StillImage" />
        <dc:title></dc:title>
      </cc:Work>
    </rdf:RDF>
  </metadata>
  <defs
     id="defs15" />
  <sodipodi:namedview
     pagecolor="#463333"
     bordercolor="#666666"
     borderopacity="1"
     objecttolerance="10"
     gridtolerance="10"
     guidetolerance="10"
     inkscape:pageopacity="0"
     inkscape:pageshadow="2"
     inkscape:window-width="1356"
     inkscape:window-height="811"
     id="namedview13"
     showgrid="false"
     inkscape:zoom="0.86605505"
     inkscape:cx="289.86595"
     inkscape:cy="96.581968"
     inkscape:window-x="-4"
     inkscape:window-y="0"
     inkscape:window-maximized="0"
     inkscape:current-layer="svg2" />
  <rect
     style="fill:#b3b3b3;fill-opacity:1;stroke:none"
     id="rect2994"
     width="539.22668"
     height="348.70764"
     x="-69.279663"
     y="-45.03178"
     transform="scale(0.8,0.8)" />
  <g
     id="#616161ff"
     style="fill:#ffffff"
     inkscape:export-xdpi="47.200001"
     inkscape:export-ydpi="47.200001">
    <path
       d="M 6.71,2.75 C 10.35,0.37 14.89,1.1 19,0.98 c 77.67,0.03 155.34,0.03 233.01,0 4.11,0.12 8.64,-0.61 12.3,1.74 3.91,2.27 6.04,6.81 5.81,11.27 0.01,16.88 0.01,34.337331 -0.01,51.217331 -4.1,-0.11 -8.19,1.273326 -12.28,1.263326 C 257.8,48.940657 257.82,29.4 257.81,11.88 c -81.52,0 -163.04,0 -244.56,0 0,42.77 0,85.54 0,128.31 58.63,0 117.26,-0.03 175.89,0.01 -0.03,-22.42 -0.03,-44.84 0,-67.26 -0.44,-4.39 3.43,-8.44 7.86,-8.1 20.13,-0.07 -6.15127,-0.0948 60.4,-0.02 0.02,6.13 0.03,12.25 0.05,18.37 -21.19,-0.01 -42.38,0 -63.57,0 0,31.44 -0.01,64.60199 0,96.04199 -1.09,-0.07 -3.66823,-1.76828 -4.74823,-1.83828 0,-12.16 0.07,-24.32 -0.04,-36.47 -0.12,12.19 0.40823,24.19629 0.34823,36.38629 -7.38,0 -14.75,0 -22.13,0 0,11.81 0,23.63 0,35.44 5.92,-0.01 11.83,0 17.75,0 0,0.81 0,2.44 0,3.25 -33.02,0 -66.04,0 -99.06,0 0,-0.81 0,-2.44 0,-3.25 5.77,0 11.54,-0.01 17.31,0 0.01,-11.81 0,-23.62 0.01,-35.43 -30.1,-0.04 -60.19,0.03 -90.28,-0.03 C 6.51,177.53 0.66,171.62 1.01,165.09 0.98,114.73 1.02,64.38 0.99,14.02 0.69,9.58 2.83,5.04 6.71,2.75 z"
       id="path5"
       inkscape:connector-curvature="0"
       style="fill:#ffffff"
       sodipodi:nodetypes="cccccccccccccccccccccccccccccccc" />
    <path
       d="M 257.91413,64.906398 C 254.03656,64.637123 271.87,64.79 279.05,64.87 c 3.89,-0.17 7.5,3.12 7.51,7.04 0.21,17.63 -0.26329,39.40234 0.0167,57.01234 -1.38,0.56 -2.98671,6.25199 -4.32671,5.50199 -1.04,-1.73 -0.9,-13.49433 -0.97,-15.43433 0.07,-11.94 0.02,-23.87 0.04,-35.8 -7.93,0 -15.85,-0.01 -23.77,0 -0.01,-6.21 -3.79265,-12.362267 -3.79265,-18.572267 z"
       id="path7"
       inkscape:connector-curvature="0"
       style="fill:#ffffff"
       sodipodi:nodetypes="sccccccccs" />
    <path
       d="m 265,125.41012 c 38.12104,-0.80345 15.97782,1.10318 16.44,9.78988 -6,-0.03 -12.01,0 -18.01,-0.01 0.01,23.77 0.01,47.54 0.01,71.31 7.62,-0.01 15.25,0.02 22.88,-0.02 17.69662,-0.0392 9.71663,0.008 17.68,0.02 0,-23.77 0,-47.54 0,-71.31 -5.77,0 -34.891,0.31659 -40.661,0.33659 -0.84526,-11.67121 27.53529,-10.5325 37.561,-9.99659 3.16,0.22 5.37,3.4 5.09,6.46 0.03,25.67 0.01,51.34 0.01,77.01 0.48,3.49 -2.26,7.15 -5.93,6.94 -34.02,0.09 -68.05,0.03 -102.07,0.07 -2.41,0.04 -5.05,-0.34 -6.74,-2.24 -2.15,-1.96 -2.17,-5.03 -2.17,-7.71 0.05,-9.56 0.02,-19.13 0.03,-28.69 1.19,0.07 3.57,0.21 4.76,0.28 -0.01,7.41 0,14.82 0.01,22.23 22.44,-0.01 44.88,0.01 67.32,-0.01 -0.40542,11.26005 0.16271,-57.63698 0.16,-66.93 -0.18,-2.78 0.81,-6.44988 3.63,-7.52988 z"
       id="path9"
       inkscape:connector-curvature="0"
       style="fill:#ffffff"
       sodipodi:nodetypes="ccccccccccccccccccccc" />
    <path
       fill="#616161"
       opacity="1.00"
       d=" M 281.47 127.31 C 282.07 125.52 284.32 125.52 285.78 126.15 C 286.53 129.09 286.24 132.19 286.48 135.20 C 284.87 135.19 283.25 135.19 281.65 135.19 C 281.55 132.56 281.31 129.94 281.47 127.31 Z"
       id="path11"
       style="fill:#ffffff" />
  </g>
</svg>
