<?xml version="1.0" encoding="UTF-8" standalone="no"?>
<svg
   xmlns:osb="http://www.openswatchbook.org/uri/2009/osb"
   xmlns:dc="http://purl.org/dc/elements/1.1/"
   xmlns:cc="http://creativecommons.org/ns#"
   xmlns:rdf="http://www.w3.org/1999/02/22-rdf-syntax-ns#"
   xmlns:svg="http://www.w3.org/2000/svg"
   xmlns="http://www.w3.org/2000/svg"
   xmlns:xlink="http://www.w3.org/1999/xlink"
   xmlns:sodipodi="http://sodipodi.sourceforge.net/DTD/sodipodi-0.dtd"
   xmlns:inkscape="http://www.inkscape.org/namespaces/inkscape"
   width="300pt"
   height="300pt"
   viewBox="0 0 300 300"
   version="1.1"
   id="svg2"
   inkscape:version="0.48.5 r10040"
   sodipodi:docname="TODAS.svg">
  <metadata
     id="metadata69">
    <rdf:RDF>
      <cc:Work
         rdf:about="">
        <dc:format>image/svg+xml</dc:format>
        <dc:type
           rdf:resource="http://purl.org/dc/dcmitype/StillImage" />
        <dc:title></dc:title>
      </cc:Work>
    </rdf:RDF>
  </metadata>
  <defs
     id="defs67">
    <linearGradient
       id="linearGradient3778">
      <stop
         id="stop3780"
         offset="0"
         style="stop-color:#9db1c2;stop-opacity:1;" />
      <stop
         id="stop3782"
         offset="1"
         style="stop-color:#9db1c2;stop-opacity:0;" />
    </linearGradient>
    <linearGradient
       osb:paint="solid"
       id="linearGradient5234">
      <stop
         id="stop5236"
         offset="0"
         style="stop-color:#9db1c2;stop-opacity:1;" />
    </linearGradient>
    <linearGradient
       osb:paint="solid"
       id="linearGradient5242">
      <stop
         id="stop5244"
         offset="0"
         style="stop-color:#9db1c2;stop-opacity:1;" />
    </linearGradient>
  </defs>
  <sodipodi:namedview
     pagecolor="#bfe4e7"
     bordercolor="#666666"
     borderopacity="1"
     objecttolerance="10"
     gridtolerance="10"
     guidetolerance="10"
     inkscape:pageopacity="0"
     inkscape:pageshadow="2"
     inkscape:window-width="553"
     inkscape:window-height="699"
     id="namedview65"
     showgrid="false"
     inkscape:zoom="0.44500587"
     inkscape:cx="326.28885"
     inkscape:cy="-720.99069"
     inkscape:window-x="414"
     inkscape:window-y="77"
     inkscape:window-maximized="0"
     inkscape:current-layer="svg2"
     inkscape:snap-page="true" />
  <rect
     style="fill:#ffffff;fill-opacity:1;stroke:none"
     id="rect3037"
     width="300"
     height="300"
     x="-843.13495"
     y="-127.26729" />
  <g
     inkscape:groupmode="layer"
     id="layer1"
     inkscape:label="estrellas"
     style="display:inline">
    <g
       id="g3059"
       transform="translate(-843.13495,-127.26729)">
      <g
         id="#016ebbff">
        <path
           id="path32"
           d="m 32.48,58.74 c 3.86,-0.26 7.7,0.12 11.53,0.55 6.74,0.27 13.5,0.2 20.26,0.43 -0.23,7.83 1.44,15.53 1.36,23.35 0.02,4.03 0.77,8.01 0.92,12.04 -13.87,6.06 -27.6,12.51 -41.72,17.99 -0.23,0.71 -0.47,1.41 -0.7,2.13 15.58,3.14 30.83,7.8 46.31,11.4 2.83,16.03 3.56,32.41 6.36,48.47 7.93,-12.61 15.61,-25.39 23.3,-38.15 0.81,-1.25 1.58,-2.58 2.81,-3.48 10.65,2.35 21.23,5.08 31.89,7.43 1.76,0.5 4.36,0.74 4.28,3.16 0.56,5.39 0.37,10.83 0.74,16.23 -6.67,-0.17 -13.19,1.53 -19.85,1.34 -4.52,-0.04 -8.97,0.8 -13.48,0.92 -1.16,8.66 -1.49,17.42 -1.92,26.14 -10.1,-0.05 -20.21,-0.52 -30.32,-0.16 3.48,-0.53 7.04,-0.39 10.5,-1.05 -12.57,0.13 -25.2,0.27 -37.74,-0.86 -4.1,-0.15 -8.2,-0.21 -12.3,-0.33 0.26,-8.22 -1.47,-16.31 -1.37,-24.52 -9.66,-1.14 -19.41,-1.65 -29.02,-3.28 1.5,-15.8 3.76,-31.5 5.42,-47.29 1.09,-6.13 0.87,-12.47 2.76,-18.47 6.4,0.08 12.73,-0.98 19.11,-1.15 1.32,-10.89 0.61,-21.9 0.87,-32.84 z"
           inkscape:connector-curvature="0"
           style="fill:#016ebb" />
        <path
           id="path34"
           d="m 76.63,60.42 c 8.89,-0.23 17.78,0.03 26.66,-0.03 0.46,6.3 1.72,12.52 1.34,18.87 -2.67,0.95 -5.09,3.19 -8.02,3.08 C 89.86,75.13 83.15,67.85 76.63,60.42 z"
           inkscape:connector-curvature="0"
           style="fill:#016ebb" />
        <path
           id="path36"
           d="m 127.72,91.42 c 4.26,0.04 8.43,0.97 12.65,1.48 0.04,12.42 -0.01,24.85 -0.17,37.28 -5.16,-4.31 -9.11,-9.82 -13.66,-14.73 -2.64,-3.04 -5.5,-5.9 -7.87,-9.16 -0.78,-1.31 0.51,-2.44 1.1,-3.51 2.62,-3.8 5.42,-7.49 7.95,-11.36 z"
           inkscape:connector-curvature="0"
           style="fill:#016ebb" />
        <path
           id="path38"
           d="m 140.8,202.76 c 1.54,-0.04 3.07,-0.08 4.6,-0.12 4.72,10.08 8.57,20.57 12.37,31.02 0.41,-0.02 1.24,-0.07 1.65,-0.1 4.03,-10.12 7.68,-20.4 12.14,-30.34 1.66,0.07 3.32,0.13 4.98,0.2 0.03,12.09 0,24.18 0.01,36.27 -0.97,-0.03 -2.91,-0.11 -3.88,-0.14 -0.15,-9.75 0.42,-19.53 -0.31,-29.25 -4.72,9.47 -7.82,19.67 -12.03,29.38 -1.17,-0.07 -2.33,-0.09 -3.49,-0.07 -2.33,-6.73 -5.26,-13.23 -7.73,-19.9 -1.15,-2.99 -2.13,-6.2 -4.54,-8.45 -0.45,9.46 -0.06,18.94 -0.2,28.41 -1.21,-0.04 -2.42,-0.07 -3.63,-0.08 0.07,-12.27 -0.08,-24.55 0.06,-36.83 z"
           inkscape:connector-curvature="0"
           style="fill:#016ebb" />
        <path
           id="path40"
           d="m 227.7,202.8 c 0.93,-0.09 1.86,-0.18 2.8,-0.27 0.32,12.43 0.08,24.87 0.13,37.3 -0.54,-0.04 -1.61,-0.13 -2.15,-0.18 -0.36,-1.17 -0.71,-2.33 -1.05,-3.5 -3.52,3.35 -8.56,5.66 -13.37,3.68 -7.51,-2.85 -8.98,-12.6 -6.69,-19.42 1.62,-5.57 7.94,-9.18 13.54,-7.54 2.41,0.83 4.48,2.36 6.66,3.65 0.03,-4.57 -0.05,-9.14 0.13,-13.72 m -13.32,13.4 c -6.76,4.67 -6.64,17.01 0.67,21.08 3.6,0.83 8.18,0.62 10.34,-2.87 3.73,-5.65 3.07,-15.36 -3.52,-18.61 -2.43,-0.38 -5.24,-0.78 -7.49,0.4 z"
           inkscape:connector-curvature="0"
           style="fill:#016ebb" />
        <path
           id="path42"
           d="m 250.81,203.2 c 1.28,0.1 2.56,0.26 3.83,0.49 -0.11,1.48 -0.26,2.95 -0.45,4.43 -0.88,0.09 -2.65,0.26 -3.53,0.35 0.04,-1.76 0.08,-3.52 0.15,-5.27 z"
           inkscape:connector-curvature="0"
           style="fill:#016ebb" />
        <path
           id="path44"
           d="m 279.4,203.32 c 0.79,0.01 2.36,0.04 3.14,0.06 -0.05,12.23 0.15,24.47 -0.11,36.7 -2.41,-0.01 -3.03,-1.88 -3.35,-3.9 -2.55,2.22 -5.49,4.5 -9.08,4.32 -5.64,0.42 -10.42,-4.44 -11.48,-9.7 -0.29,-4.19 -0.73,-8.79 1.61,-12.53 2.39,-4.46 7.92,-6.83 12.78,-5.36 2.45,0.82 4.41,2.56 6.46,4.06 0.05,-4.55 0.02,-9.1 0.03,-13.65 m -13.11,12.76 c -6.74,4.46 -6.66,16.41 -0.01,20.94 3.26,1.07 7.67,1.2 10.05,-1.73 4.97,-5.43 4.2,-15.68 -2.51,-19.39 -2.42,-0.59 -5.21,-0.77 -7.53,0.18 z"
           inkscape:connector-curvature="0"
           style="fill:#016ebb" />
        <path
           id="path46"
           d="m 181.53,221.65 c 0.27,-3.87 2.77,-7.55 6.63,-8.57 5.14,-1.56 12.87,-0.34 13.97,5.94 0.48,5.51 0.1,11.06 0.18,16.58 1,1.27 4.25,2.28 2.31,4.09 -2.76,0.75 -4.68,-1.09 -5.81,-3.39 -3.44,3.56 -8.69,5.4 -13.47,3.53 -5.14,-1.75 -6.86,-9.42 -2.18,-12.67 4.58,-2.88 10.34,-2.27 15.41,-3.76 0,-1.87 0.13,-3.76 -0.24,-5.61 -1.08,-1.28 -2.52,-2.45 -4.3,-2.28 -2.35,0.15 -5.49,-0.77 -7.1,1.44 -1.11,1.35 -1.82,2.95 -2.62,4.49 -0.7,0.06 -2.09,0.16 -2.78,0.21 m 2.8,7.82 c 0.18,2.57 -1,6.16 1.95,7.54 4.15,1.65 9.7,0.39 11.86,-3.82 0.68,-2.28 0.48,-4.69 0.6,-7.02 -4.94,0.3 -9.85,1.37 -14.41,3.3 z"
           inkscape:connector-curvature="0"
           style="fill:#016ebb" />
        <path
           id="path48"
           d="m 235.64,213.84 c 0.68,-0.21 2.06,-0.62 2.74,-0.83 0.12,1.69 0.22,3.39 0.33,5.08 2.76,-2.62 5.88,-5.25 9.96,-4.98 0.01,0.61 0.05,1.81 0.07,2.42 -3.6,1.12 -7.68,2.67 -9.01,6.57 -0.8,5.9 -0.18,11.88 -0.39,17.82 -1.2,-0.25 -2.42,-0.45 -3.6,-0.77 -0.2,-8.44 0.05,-16.88 -0.1,-25.31 z"
           inkscape:connector-curvature="0"
           style="fill:#016ebb" />
        <path
           id="path50"
           d="m 251.1,213.36 c 1.1,0.03 2.21,0.07 3.32,0.1 -0.01,8.71 -0.03,17.43 0.03,26.14 -1.23,0.02 -2.45,0.05 -3.66,0.08 0,-8.77 -0.51,-17.58 0.31,-26.32 z"
           inkscape:connector-curvature="0"
           style="fill:#016ebb" />
      </g>
      <g
         id="#a71716ff">
        <path
           sodipodi:nodetypes="cccccccccccccccccc"
           style="fill:#a71716"
           inkscape:connector-curvature="0"
           id="path53"
           d="m 151.43,62.56 c 17.96,0 35.91,0.04 53.87,-0.02 5.26,18.95 9.36,38.22 14.22,57.28 1.46,4.84 1.59,10.24 4.51,14.52 6.11,-23.88 11.39,-47.98 17.75,-71.78 18.2,0.19 36.41,-0.31 54.59,0.25 -0.04,41.26 -0.02,82.51 -0.01,123.76 -12.21,0.19 -24.43,0.08 -36.64,0.06 -0.12,-21.21 -0.01,-42.42 -0.04,-63.62 -0.05,-4.58 0.33,-9.19 -0.46,-13.72 -1.96,4.33 -2.74,9.07 -4.02,13.61 -5.88,21.22 -11.47,42.52 -17.35,63.73 -9.53,0.06 -19.05,0.04 -28.58,0.01 -7.21,-26.26 -14.18,-52.58 -21.45,-78.82 -0.78,5.36 -0.42,10.79 -0.48,16.18 -0.01,20.9 0.05,41.79 -0.04,62.68 -12,-0.08 -24,0.09 -36,-0.09 0.19,-41.34 -0.07,-82.68 0.13,-124.03" />
        <path
           id="path55"
           d="m 23.52,205.49 c 3.1,-2.8 7.5,-3.27 11.51,-2.94 5.86,0.17 11.84,5.03 11.49,11.25 -0.74,-0.03 -2.22,-0.1 -2.97,-0.14 -1.16,-3.09 -2.79,-6.3 -6.08,-7.55 -4.56,-1.73 -11.25,-0.93 -13.29,4.17 -1.6,2.98 0.65,6.79 3.78,7.53 5.85,2.18 12.96,1.92 17.68,6.48 2.57,2.16 2.2,5.68 1.85,8.66 -1.19,4.19 -5.32,6.7 -9.43,7.25 -5.57,0.74 -12.14,0.42 -16.19,-4.03 -2.31,-2.39 -3.7,-6.79 -0.85,-9.3 1.94,3.03 2.55,7.28 5.95,9.14 2.94,1.88 6.57,1.55 9.89,1.41 4.1,-0.45 8.59,-4.26 7.4,-8.75 -1.27,-3.39 -5.01,-4.57 -8.19,-5.37 -4.36,-1.27 -9.23,-1.52 -12.96,-4.35 -4.06,-3.35 -3.26,-10.11 0.41,-13.46 z"
           inkscape:connector-curvature="0"
           style="fill:#a71716" />
        <path
           id="path57"
           d="m 77.46,202.88 c 1.02,0.3 2.03,0.64 3.03,1 0,11.83 0.21,23.68 -0.1,35.5 -0.72,0.17 -2.16,0.51 -2.89,0.68 -0.3,-12.39 -0.22,-24.79 -0.04,-37.18 z"
           inkscape:connector-curvature="0"
           style="fill:#a71716" />
        <path
           id="path59"
           d="m 132.32,203.19 c 0.75,0.05 2.24,0.14 2.99,0.19 0.09,12.15 0.08,24.31 0.01,36.46 -2.75,0.54 -3.11,-1.57 -3.25,-3.74 -2.86,2.27 -6.04,4.83 -9.94,4.39 -5.07,0.11 -9.18,-4.02 -10.58,-8.63 -0.44,-3.24 -0.39,-6.55 -0.13,-9.8 0.91,-5.39 6.08,-9.91 11.66,-9.53 3.62,-0.14 6.4,2.52 9.17,4.46 0.12,-4.6 0.04,-9.2 0.07,-13.8 m -13.81,13.24 c -5.03,3.67 -5.12,11.05 -3.19,16.41 2.13,5.71 10.82,6.68 14.26,1.76 2.67,-2.86 2.35,-7.05 2.18,-10.67 -0.13,-3.54 -2.58,-6.91 -5.8,-8.28 -2.44,-0.16 -5.33,-0.77 -7.45,0.78 z"
           inkscape:connector-curvature="0"
           style="fill:#a71716" />
        <path
           id="path61"
           d="m 51.18,221.55 c 0.16,-8.88 12.08,-11.48 18.23,-6.86 1.19,1.14 2.21,2.67 2.2,4.39 0.32,5.24 -0.29,10.51 0.25,15.74 0.94,1.7 2.26,3.15 3.35,4.75 -1.52,-0.02 -3.07,0.21 -4.55,-0.17 -0.92,-1.01 -1.69,-2.14 -2.5,-3.23 -2.38,2.54 -5.47,4.82 -9.17,4.32 -4.3,0.38 -9.09,-2.79 -8.68,-7.48 -0.44,-3.41 2.13,-6.37 5.29,-7.24 4.22,-1.1 8.62,-1.31 12.83,-2.48 0.35,-2.79 0.17,-5.94 -2.58,-7.48 -2.55,-0.52 -5.22,-0.49 -7.78,-0.05 -2.16,1.18 -3,3.61 -3.99,5.7 -0.96,0.03 -1.93,0.06 -2.9,0.09 m 4.59,7.17 c -3.97,1.84 -2.41,8.12 1.55,8.78 3.11,0.37 6.66,0.29 8.8,-2.35 2.85,-2.1 2.48,-5.82 2.58,-8.94 -4.38,0.25 -8.85,0.85 -12.93,2.51 z"
           inkscape:connector-curvature="0"
           style="fill:#a71716" />
        <path
           id="path63"
           d="m 85.56,213.39 c 0.74,0 2.22,-0.01 2.96,-0.01 0.04,5.54 -0.02,11.09 0,16.63 -0.17,2.84 1.29,5.64 3.58,7.29 2.89,0.41 6.58,1.04 8.69,-1.53 1.64,-1.85 2.93,-4.21 2.86,-6.75 0.11,-5.19 -0.02,-10.38 0.03,-15.57 0.75,-0.02 2.24,-0.07 2.99,-0.09 -0.13,9.05 0.37,18.13 -0.28,27.17 -1.18,-1.13 -2.3,-2.31 -3.38,-3.52 -2.77,2.24 -6.15,4.08 -9.85,3.43 -4.32,-0.08 -7.66,-4.21 -7.55,-8.39 -0.13,-6.22 0.02,-12.44 -0.05,-18.66 z"
           inkscape:connector-curvature="0"
           style="fill:#a71716" />
      </g>
      <path
         inkscape:transform-center-y="-0.24096055"
         inkscape:transform-center-x="0.2431799"
         transform="matrix(0.92099188,0,0,0.91258039,-3.3019593,11.479428)"
         d="m 277.08328,73.282597 -2.89929,-2.044927 -2.83084,2.138696 1.04891,-3.389313 -2.9088,-2.031392 3.54756,-0.04978 1.0331,-3.394165 1.14361,3.358545 3.54728,-0.06632 -2.84077,2.125479 z"
         inkscape:randomized="0"
         inkscape:rounded="0"
         inkscape:flatsided="false"
         sodipodi:arg2="1.5544335"
         sodipodi:arg1="0.92611501"
         sodipodi:r2="1.8518631"
         sodipodi:r1="4.8749957"
         sodipodi:cy="69.386055"
         sodipodi:cx="274.15369"
         sodipodi:sides="5"
         id="path3046"
         style="fill:#ffffff;fill-opacity:1;stroke:none"
         sodipodi:type="star" />
      <path
         sodipodi:type="star"
         style="fill:#ffffff;fill-opacity:1;stroke:none"
         id="path3059"
         sodipodi:sides="5"
         sodipodi:cx="274.15369"
         sodipodi:cy="69.386055"
         sodipodi:r1="4.8749957"
         sodipodi:r2="1.8518631"
         sodipodi:arg1="0.92611501"
         sodipodi:arg2="1.5544335"
         inkscape:flatsided="false"
         inkscape:rounded="0"
         inkscape:randomized="0"
         d="m 277.08328,73.282597 -2.89929,-2.044927 -2.83084,2.138696 1.04891,-3.389313 -2.9088,-2.031392 3.54756,-0.04978 1.0331,-3.394165 1.14361,3.358545 3.54728,-0.06632 -2.84077,2.125479 z"
         transform="matrix(0.92099188,0,0,0.91258039,10.24013,11.479428)"
         inkscape:transform-center-x="0.24317986"
         inkscape:transform-center-y="-0.24096055" />
      <path
         inkscape:transform-center-y="-0.24096055"
         inkscape:transform-center-x="0.24318122"
         transform="matrix(0.92099188,0,0,0.91258039,23.78222,11.479428)"
         d="m 277.08328,73.282597 -2.89929,-2.044927 -2.83084,2.138696 1.04891,-3.389313 -2.9088,-2.031392 3.54756,-0.04978 1.0331,-3.394165 1.14361,3.358545 3.54728,-0.06632 -2.84077,2.125479 z"
         inkscape:randomized="0"
         inkscape:rounded="0"
         inkscape:flatsided="false"
         sodipodi:arg2="1.5544335"
         sodipodi:arg1="0.92611501"
         sodipodi:r2="1.8518631"
         sodipodi:r1="4.8749957"
         sodipodi:cy="69.386055"
         sodipodi:cx="274.15369"
         sodipodi:sides="5"
         id="path3061"
         style="fill:#ffffff;fill-opacity:1;stroke:none"
         sodipodi:type="star" />
      <path
         sodipodi:type="star"
         style="fill:#ffffff;fill-opacity:1;stroke:none"
         id="path3063"
         sodipodi:sides="5"
         sodipodi:cx="274.15369"
         sodipodi:cy="69.386055"
         sodipodi:r1="4.8749957"
         sodipodi:r2="1.8518631"
         sodipodi:arg1="0.92611501"
         sodipodi:arg2="1.5544335"
         inkscape:flatsided="false"
         inkscape:rounded="0"
         inkscape:randomized="0"
         d="m 277.08328,73.282597 -2.89929,-2.044927 -2.83084,2.138696 1.04891,-3.389313 -2.9088,-2.031392 3.54756,-0.04978 1.0331,-3.394165 1.14361,3.358545 3.54728,-0.06632 -2.84077,2.125479 z"
         transform="matrix(0.92099188,0,0,0.91258039,37.32431,11.479428)"
         inkscape:transform-center-x="0.24318057"
         inkscape:transform-center-y="-0.24096055" />
      <path
         inkscape:transform-center-y="-0.24096013"
         inkscape:transform-center-x="0.24318039"
         transform="matrix(0.92099188,0,0,0.91258039,3.3321669,22.514845)"
         d="m 277.08328,73.282597 -2.89929,-2.044927 -2.83084,2.138696 1.04891,-3.389313 -2.9088,-2.031392 3.54756,-0.04978 1.0331,-3.394165 1.14361,3.358545 3.54728,-0.06632 -2.84077,2.125479 z"
         inkscape:randomized="0"
         inkscape:rounded="0"
         inkscape:flatsided="false"
         sodipodi:arg2="1.5544335"
         sodipodi:arg1="0.92611501"
         sodipodi:r2="1.8518631"
         sodipodi:r1="4.8749957"
         sodipodi:cy="69.386055"
         sodipodi:cx="274.15369"
         sodipodi:sides="5"
         id="path3065"
         style="fill:#ffffff;fill-opacity:1;stroke:none"
         sodipodi:type="star" />
      <path
         sodipodi:type="star"
         style="fill:#ffffff;fill-opacity:1;stroke:none"
         id="path3067"
         sodipodi:sides="5"
         sodipodi:cx="274.15369"
         sodipodi:cy="69.386055"
         sodipodi:r1="4.8749957"
         sodipodi:r2="1.8518631"
         sodipodi:arg1="0.92611501"
         sodipodi:arg2="1.5544335"
         inkscape:flatsided="false"
         inkscape:rounded="0"
         inkscape:randomized="0"
         d="m 277.08328,73.282597 -2.89929,-2.044927 -2.83084,2.138696 1.04891,-3.389313 -2.9088,-2.031392 3.54756,-0.04978 1.0331,-3.394165 1.14361,3.358545 3.54728,-0.06632 -2.84077,2.125479 z"
         transform="matrix(0.92099188,0,0,0.91258039,17.531688,22.514845)"
         inkscape:transform-center-x="0.24318101"
         inkscape:transform-center-y="-0.24096013" />
      <path
         inkscape:transform-center-y="-0.24096013"
         inkscape:transform-center-x="0.24318051"
         transform="matrix(0.92099188,0,0,0.91258039,31.731195,22.514845)"
         d="m 277.08328,73.282597 -2.89929,-2.044927 -2.83084,2.138696 1.04891,-3.389313 -2.9088,-2.031392 3.54756,-0.04978 1.0331,-3.394165 1.14361,3.358545 3.54728,-0.06632 -2.84077,2.125479 z"
         inkscape:randomized="0"
         inkscape:rounded="0"
         inkscape:flatsided="false"
         sodipodi:arg2="1.5544335"
         sodipodi:arg1="0.92611501"
         sodipodi:r2="1.8518631"
         sodipodi:r1="4.8749957"
         sodipodi:cy="69.386055"
         sodipodi:cx="274.15369"
         sodipodi:sides="5"
         id="path3069"
         style="fill:#ffffff;fill-opacity:1;stroke:none"
         sodipodi:type="star" />
    </g>
  </g>
  <flowRoot
     xml:space="preserve"
     id="flowRoot3015"
     style="font-size:40px;font-style:normal;font-weight:normal;line-height:125%;letter-spacing:0px;word-spacing:0px;fill:#000000;fill-opacity:1;stroke:none;font-family:Sans"
     transform="matrix(0.8,0,0,0.8,-753.24849,-17.977291)"><flowRegion
       id="flowRegion3017"><rect
         id="rect3019"
         width="750.55188"
         height="112.35807"
         x="-85.392136"
         y="-229.4864" /></flowRegion><flowPara
       id="flowPara3021">Logos para los tests: 200x200</flowPara></flowRoot>  <use
     x="0"
     y="0"
     xlink:href="#rect3037"
     id="use3039"
     transform="translate(453.9266,-7.1909201)"
     width="300"
     height="300"
     style="opacity:0"
     inkscape:export-filename="/Users/rotoxl/dev/proyectotest/cordova/imágenes/test-generico.png"
     inkscape:export-xdpi="48"
     inkscape:export-ydpi="48" />
  <path
     id="path3062"
     d="m -203.82205,-14.480661 h -60.73802 c -3.39628,0 -6.1521,-2.87472 -6.1521,-6.41753 0,-3.5428 2.75582,-6.41753 6.1521,-6.41753 h 60.73568 c 3.39628,0 6.1521,2.87473 6.1521,6.41753 0,3.54281 -2.75582,6.41753 -6.14977,6.41753 z m 6.14977,25.74572 c 0,-3.5428099 -2.75582,-6.4175399 -6.15211,-6.4175399 h -60.73568 c -3.39628,0 -6.1521,2.87473 -6.1521,6.4175399 0,3.5428 2.75582,6.41754 6.1521,6.41754 h 60.73568 c 3.39629,0 6.15211,-2.87474 6.15211,-6.41754 z m 0,32.16569 c 0,-3.54281 -2.75582,-6.41754 -6.15211,-6.41754 h -60.73568 c -3.39628,0 -6.1521,2.87473 -6.1521,6.41754 0,3.5428 2.75582,6.41753 6.1521,6.41753 h 60.73568 c 3.39629,0 6.15211,-2.87473 6.15211,-6.41753 z m 0,32.16081 c 0,-3.54281 -2.75582,-6.41753 -6.15211,-6.41753 h -38.43897 c -3.39628,0 -6.1521,2.87472 -6.1521,6.41753 0,3.54282 2.75582,6.41753 6.1521,6.41753 h 38.44131 c 3.39395,0 6.14977,-2.87471 6.14977,-6.41753 z m 63.64812,-123.661848 V 114.07238 c 0,3.5428 -2.75349,6.41509 -6.14977,6.41509 h -161.89249 c -3.39627,0 -6.14976,-2.87229 -6.14976,-6.41509 V -82.98879 c 0,-3.542809 2.75349,-6.415094 6.14976,-6.415094 h 128.41821 c 1.63151,0 3.19527,0.675402 4.34994,1.879908 l 33.47195,34.91606 c 1.15468,1.20451 1.80216,2.835712 1.80216,4.537627 z m -6.14977,162.142669 V -41.674701 c -0.25946,0.0342 -0.50488,0.11947 -0.77135,0.11947 h -33.47429 c -3.39627,0 -6.14977,-2.87228 -6.14977,-6.415087 V -82.88882 c 0,-0.03414 0.0146,-0.06584 0.0146,-0.09997 h -121.51108 v 197.06117 h 161.89248 z m -198.06883,0 V -82.98879 h 23.78099 v -6.415094 h -23.78099 c -3.39627,0 -6.14976,2.872285 -6.14976,6.415094 v 197.06117 c 0,3.5428 2.75349,6.41509 6.14976,6.41509 h 23.78099 v -6.41509 h -23.78099 z"
     inkscape:connector-curvature="0"
     style="fill:#b3b3b3"
     inkscape:export-filename="/Users/rotoxl/dev/proyectotest/cordova/imágenes/test-generico.png"
     inkscape:export-xdpi="48"
     inkscape:export-ydpi="48" />
  <g
     id="#b5b5b5f7"
     transform="matrix(1.0945641,0,0,1.0892271,-589.24891,455.04021)"
     inkscape:export-filename="/Users/rotoxl/Documents/docu-proyecto test/previo/logo/silla120.png"
     inkscape:export-xdpi="29.16"
     inkscape:export-ydpi="29.16">
    <path
       d="m 100.96,83.37 c 18.98,0.81 37.95,2.39 56.97,2 6.11,-0.01 12.2,-1.39 18.29,-0.81 -10.09,3.17 -20.81,2.18 -31.22,2.05 -14.71,-0.6 -29.42,-1.53 -44.04,-3.24 z"
       id="path5"
       inkscape:connector-curvature="0"
       style="opacity:0.97000002;fill:#b5b5b5" />
    <path
       d="m 278.31,119.61 0.38,-0.13 -0.33,0.14 -0.32,0.1 0.27,-0.11 z"
       id="path9"
       inkscape:connector-curvature="0"
       style="opacity:0.97000002;fill:#b5b5b5" />
    <path
       d="m 31.1,164.51 c 3.51,-0.5 7,0.48 10.45,1.03 9.5,2.12 19.13,3.8 28.44,6.71 4.34,1.34 8.28,3.71 11.83,6.52 -15.63,-7.65 -33.15,-10.06 -49.95,-13.53 -0.2,-0.19 -0.58,-0.55 -0.77,-0.73 z"
       id="path11"
       inkscape:connector-curvature="0"
       style="opacity:0.97000002;fill:#b5b5b5" />
    <path
       d="m 174.1,209.04 c -116.066667,41.30667 -58.03333,20.65333 0,0 z"
       id="path13"
       inkscape:connector-curvature="0"
       style="opacity:0.97000002;fill:#b5b5b5"
       sodipodi:nodetypes="cc" />
    <path
       d="m 235.89,212.93 c 1.67,-0.48 3.43,0.13 3.39,2.18 -1.54,-0.09 -3.81,0.07 -3.39,-2.18 z"
       id="path15"
       inkscape:connector-curvature="0"
       style="opacity:0.97000002;fill:#b5b5b5" />
  </g>
  <path
     sodipodi:type="arc"
     style="fill:#9db1c5;fill-opacity:1;stroke:none"
     id="path3012"
     sodipodi:cx="-9.3299789"
     sodipodi:cy="53.826801"
     sodipodi:rx="138.5143"
     sodipodi:ry="138.5143"
     d="m 129.18432,53.826801 a 138.5143,138.5143 0 1 1 -277.0286,0 138.5143,138.5143 0 1 1 277.0286,0 z"
     transform="matrix(1.07209,0,0,1.0720915,-422.76373,542.6217)"
     inkscape:export-filename="/Users/rotoxl/dev/proyectotest/web/images/logo.png"
     inkscape:export-xdpi="7.2727375"
     inkscape:export-ydpi="7.2727375" />
  <path
     sodipodi:nodetypes="ccccccccccccccccccccccccccccccccccccccccccccccccccccccccccccccccccccccccccccccccccccccccccccccccccccccccccccccccccccccccccccccccccccccccccccccccccccccccccccccccccccccccccccccccc"
     style="opacity:0.95099996;fill:#465462;fill-opacity:1"
     inkscape:connector-curvature="0"
     id="path18"
     d="m -506.53204,459.28223 c 6.70024,-1.75467 14.27956,-2.15009 20.33657,2.17482 2.17624,1.35925 3.21612,4.02834 3.99871,6.59857 2.77658,8.92167 5.91765,17.6827 8.65136,26.62909 13.19679,-0.13593 26.38287,-0.70434 39.56893,-1.32219 4.256,-1.13683 7.38636,-5.62238 11.84603,-6.20315 8.93009,-1.23569 17.93522,-1.30983 26.88673,-2.19953 8.58704,-0.75377 17.21695,-0.18535 25.78254,-1.39633 12.84302,-0.29656 25.65388,-1.48282 38.50763,-1.82882 8.89791,-0.90205 17.86016,-1.01326 26.77952,-0.3707 2.11192,0.24713 4.17023,0.90205 6.18567,1.64346 0.34305,0.67963 1.01843,2.01418 1.36149,2.6938 -1.45797,2.58259 -3.41982,4.73269 -5.89622,5.95602 -18.56771,9.44066 -38.05737,16.11338 -57.41838,23.02088 -14.033,4.78211 -28.00167,9.86079 -42.27049,13.66671 0.30016,17.7692 1.22211,35.52604 1.39365,53.3076 0.15007,2.18717 -0.17154,4.55969 0.64322,6.61093 2.83019,2.80502 6.42151,4.64619 8.62991,8.24205 1.17925,4.95511 -3.41981,7.53769 -6.57159,9.28002 -1.25429,0.67963 -2.5193,1.3469 -3.77358,2.01416 0.87014,3.42673 0,0 1.80103,8.05669 0.48241,1.82882 0.96483,3.67 1.45797,5.49882 0.21441,1.07505 0.43954,2.13774 0.66466,3.2128 0.4717,2.1748 1.0506,4.3249 1.61877,6.475 0.83619,3.20043 1.5759,6.42558 2.39065,9.63836 1.07205,4.07778 1.97256,8.21734 2.99099,12.33218 0.45026,1.81646 0.90051,3.64528 1.32933,5.48645 0.99699,4.44848 2.14407,8.84753 3.1518,13.29601 1.08276,4.63384 2.45496,9.16881 3.4734,13.82736 1.56517,7.26585 3.33404,14.45755 5.18867,21.6369 0.88978,3.22514 1.94039,6.40086 2.78729,9.66309 0.95411,6.89514 3.07676,13.45664 4.52401,20.22822 -2.94811,1.5446 -5.96053,2.95329 -8.97296,4.31255 -0.0751,-1.01327 -0.22513,-3.05216 -0.28945,-4.06542 l -0.43954,-0.40778 c -0.93267,-8.42739 -4.51329,-16.0763 -5.47811,-24.51605 -0.64323,-3.67 -1.38294,-7.31528 -2.22985,-10.92349 -1.08276,0.59314 -2.16552,1.18626 -3.23756,1.77939 -1.01843,0.51899 -2.03687,1.05034 -3.05531,1.56932 -1.83318,0.91441 -3.63421,1.92768 -5.42451,2.96565 -17.29199,9.3171 -34.61614,18.5724 -51.88668,27.93893 -4.88849,2.59494 -9.53042,5.83244 -14.64404,7.84661 -0.22513,0.61785 -0.6861,1.8659 -0.91123,2.48374 -0.57891,0.0494 -1.72599,0.13593 -2.30489,0.17299 -2.54073,-0.76612 -5.06003,-1.65581 -7.53643,-2.70615 -0.98628,-1.30983 -1.40437,-2.96565 -1.80103,-4.59676 -9.45538,-4.2137 -36.30504,-17.95667 -45.5353,-22.83764 -18.81194,-14.89566 -15.52238,-13.71806 -19.78313,-16.99892 16.05571,-7.98411 10.6123,-5.43906 12.65989,-6.26698 14.15091,-6.35144 28.06598,-13.37015 42.19545,-19.80808 -1.84391,-6.3638 -2.2084,-13.13537 -4.21312,-19.42503 -2.17623,-7.2782 -7.18265,-13.25893 -13.07887,-16.68179 -10.61318,-4.06541 -21.70878,-6.00545 -32.49349,-9.32945 -2.00471,2.05124 -4.25599,4.20135 -4.84562,7.40178 -1.09348,5.94366 -0.77186,12.06031 -0.84691,18.09048 -0.18224,11.98617 0.20458,34.04525 0.62267,46.01907 -3.00171,-4.3002 -4.86926,-5.83186 -7.42071,-10.51511 -0.93268,-7.48828 -2.03555,-28.06512 -1.62818,-35.62753 0.0214,-2.3231 -0.0214,-4.63384 -0.11792,-6.94457 0.0858,-7.167 0.55746,-14.56877 3.65565,-20.95728 -1.50086,-1.28512 -2.96955,-2.61966 -4.40608,-4.00363 4.20239,-4.97983 10.54886,-5.9313 15.81257,-8.82282 -8.13677,-7.19171 -10.33445,-19.12846 -13.37904,-29.73066 -3.51629,-13.87678 -7.1505,-27.70413 -10.37734,-41.66742 -2.66937,0.70434 -5.33875,1.40869 -8.00813,2.07597 -0.60034,-0.70435 -1.80102,-2.10068 -2.40136,-2.80502 -3.88078,-11.20769 -5.83189,-23.19387 -7.35419,-35.09355 -1.30789,-9.55187 1.09348,-20.45064 8.22254,-26.22131 5.08146,-3.29929 10.91335,-4.59676 16.44507,-6.56151 m 85.16275,33.59837 c -0.0858,1.79175 -0.20368,3.57114 -0.32161,5.36289 9.21953,-3.17572 18.72852,-5.16518 27.98021,-8.18026 m -113.46457,36.04503 c 3.01243,11.91204 5.29587,24.07122 8.77999,35.82261 2.95883,10.34271 5.91766,21.57512 13.40049,28.86569 2.01543,1.56932 4.27743,4.65854 6.90393,2.91622 13.03599,-6.20316 26.20062,-12.2086 39.23661,-18.26348 0.55746,-0.34599 1.69382,-1.02562 2.262,-1.37162 1.15781,-0.50663 2.31561,-1.0009 3.48413,-1.47046 1.76886,-0.69198 3.49485,-1.54461 5.17795,-2.47137 1.7903,-0.9762 3.75214,-1.33455 5.72468,-1.30984 -0.77737,-2.01132 -6.94124,-12.937 -7.17194,-12.87587 -1.12563,-3.39814 -2.19767,-6.80864 -3.04458,-10.318 l 0.13936,-0.58077 c -0.21441,-0.66727 -0.65394,-2.00181 -0.87907,-2.66909 -0.28945,-2.01417 -0.62178,-4.02835 -0.9434,-6.03016 -0.1608,-2.15009 -0.42881,-4.28784 -1.17924,-6.26493 -0.0858,-1.30984 -0.34305,-2.55789 -0.77187,-3.78122 -1.22212,-6.90749 -1.8975,-13.90149 -3.50556,-20.72249 -22.59858,6.57386 -45.15427,13.40722 -67.61348,20.52478 m 76.11475,-14.80354 c 1.09347,7.98254 1.2114,16.13809 2.86234,23.99706 0.6325,3.78122 0.95411,7.74778 2.51929,11.2077 -0.0321,4.46084 2.74442,7.95783 4.62049,11.59076 1.87606,2.11302 3.71997,4.25077 5.48884,6.48736 4.73841,-2.66908 9.98067,-1.27276 15.00853,-1.19862 1.60806,0.6302 3.25901,1.01327 4.96354,1.11212 10.27014,1.77939 20.33658,4.65855 30.54239,6.69744 0.73971,0.13592 2.21912,0.39541 2.95882,0.53134 0.52531,0.11121 1.55446,0.35835 2.06903,0.46956 -0.24657,-18.56003 -0.9541,-37.09537 -1.12564,-55.6554 -16.71308,-0.21007 -33.36183,-2.05125 -50.03203,-3.13865 -6.59304,-1.11212 -13.32545,-0.5437 -19.8756,-2.10067 m 64.60104,90.29175 c -4.36371,1.8208 -4.45204,1.55309 -7.01113,3.11394 -1.53301,0.60548 -3.03387,1.3469 -4.35247,2.44666 -2.55146,0.46956 -5.00642,1.38397 -7.37562,2.53316 -8.41552,3.42285 -17.04543,6.03016 -25.10715,10.54042 -0.11793,0.40778 -0.36449,1.22333 -0.48242,1.63111 0.55746,13.96328 2.1548,27.84006 2.61577,41.8157 0.0107,1.70525 0.35378,3.70706 2.04759,4.16426 14.33316,7.61185 29.98493,11.07178 45.40085,14.40813 3.88077,0.59314 7.79371,2.3231 11.69594,1.0627 l -0.49314,-0.50663 c 1.39365,-0.61785 2.76585,-1.28512 4.12734,-1.98946 l -0.0214,-0.45721 c 1.24358,-0.60548 2.49786,-1.18626 3.75214,-1.76704 -1.5759,-5.25167 -2.58361,-10.70106 -3.96654,-16.01451 -1.29717,-6.20316 -2.61578,-12.45574 -4.51328,-18.46119 -0.13937,-1.37161 -0.3645,-2.70615 -0.69683,-4.02834 -0.78258,-2.71851 -1.45798,-5.48646 -2.02615,-8.27912 -1.51158,-7.17935 -3.7843,-14.09921 -5.82117,-21.10556 -0.72899,-3.71942 -2.87307,-6.93221 -2.76587,-10.86169 -1.65093,0.65491 -3.31259,1.2604 -5.00642,1.75467 m -55.13495,22.68725 0.28945,1.01326 c -5.25299,1.96474 -10.47381,4.18898 -15.96265,5.11574 0.62178,3.50936 2.33704,6.64801 3.14107,10.13265 0.85764,4.78211 1.95111,9.52716 2.21912,14.43285 5.02786,-0.71671 9.36962,-4.18899 14.02227,-6.28966 -0.46098,-7.7972 -0.93267,-15.59439 -1.90823,-23.31744 -0.45026,-0.27185 -1.35077,-0.81556 -1.80103,-1.0874 m -8.76927,38.30633 c 2.71226,7.47592 8.35118,13.85207 15.38375,15.55732 -0.32161,-2.74323 -0.63249,-5.48645 -0.88978,-8.22968 -0.19297,-4.74505 -3.24829,-8.36562 -4.70626,-12.62874 -3.22683,1.84117 -6.75385,3.03979 -9.78771,5.3011 m -16.6166,7.73542 c 2.18696,4.65853 5.48884,9.00816 9.86276,10.93583 -0.54674,-4.90568 -1.27573,-9.799 -2.48713,-14.54404 -2.42281,1.29747 -4.8885,2.48373 -7.37563,3.60821 m -17.38847,9.13173 c 3.1518,4.57204 6.518,9.15645 11.00984,12.04796 6.14278,3.81828 12.86446,6.1043 19.32886,9.08232 -0.61106,-3.49701 -0.66467,-7.22879 -1.72598,-10.56514 -6.08918,-4.51027 -12.17836,-9.66309 -15.5124,-17.312 -4.38464,2.21189 -8.86576,4.16427 -13.10032,6.74686 m 57.02174,-5.28875 c 0.0965,2.05125 0.17152,4.09013 0.22513,6.14138 0.72899,0.54369 1.50084,1.01326 2.30488,1.39633 11.57802,3.96656 23.07027,8.25439 34.61614,12.30744 3.61276,-1.50753 6.96824,-3.73177 10.51669,-5.42466 -15.80185,-5.09104 -32.15044,-8.10612 -47.66284,-14.42049 m -20.66891,3.151 c 0.50386,3.27459 0.91123,6.61094 1.85462,9.77431 12.58574,6.37615 25.85758,10.78755 38.647,16.62001 2.88379,-1.47047 5.73541,-3.00273 8.55487,-4.60912 -8.87648,-4.10248 -18.13889,-6.98164 -26.99393,-11.18299 -0.62178,4.53499 -5.33874,4.49791 -8.02957,2.4961 -0.28945,-2.10067 -0.55746,-4.2137 -0.81475,-6.32673 -4.5776,-1.82882 -8.84432,-4.42376 -13.21824,-6.77158 m -53.83072,10.04629 c 2.0476,5.54824 9.58769,8.87211 13.44703,12.75217 11.2564,8.14319 24.27095,12.07268 36.55652,17.63327 0.17152,-3.44757 -0.5253,-6.80864 -1.1578,-10.14499 -6.40008,-2.44667 -12.75727,-5.02926 -19.08229,-7.7107 -7.64364,-3.18808 -14.08659,-9.57659 -18.48195,-17.39849 -2.65866,1.44575 -6.35498,1.96455 -9.0458,3.31145 m 54.67177,9.60148 c 0.43954,3.13866 0.94339,6.2773 1.65094,9.35417 6.59303,2.28602 13.03599,5.2146 19.73623,7.04342 2.73369,-0.59312 6.0463,-1.9771 8.08317,-3.91713 -9.72338,-4.46083 -19.67191,-8.24204 -29.47034,-12.48046 m 2.51929,16.7683 c 0.77187,3.03979 1.265,6.16609 1.54373,9.31709 3.47341,-1.16154 6.72168,-3.0645 9.89492,-5.00454 -3.80574,-1.45811 -7.50427,-3.36107 -11.43865,-4.31255 z"
     inkscape:export-filename="/Users/rotoxl/dev/proyectotest/web/images/logo.png"
     inkscape:export-xdpi="7.2727375"
     inkscape:export-ydpi="7.2727375" />
  <path
     inkscape:connector-curvature="0"
     style="opacity:0.95999995;fill:#2b2200"
     id="path20"
     d="m -542.4534,492.77624 c 0.28909,0.29315 0.28909,0.29315 0,0 z" />
  <rect
     style="opacity:0.95099996;fill:#465462;fill-opacity:1;stroke:none"
     id="rect3774"
     width="32.726692"
     height="30.430084"
     x="-663.94446"
     y="370.46243" />
  <rect
     y="370.46243"
     x="-632.24365"
     height="30.430084"
     width="32.726692"
     id="rect3776"
     style="opacity:0.95099996;fill:#9db1c2;fill-opacity:1;stroke:none" />
  <rect
     style="fill:#b3b3b3;fill-opacity:1;stroke:none"
     id="rect2994"
     width="431.38135"
     height="278.96613"
     x="557.33282"
     y="-33.637802" />
  <g
     id="#616161ff"
     style="fill:#ffffff"
     inkscape:export-xdpi="47.200001"
     inkscape:export-ydpi="47.200001"
     transform="translate(612.75656,2.3876206)">
    <path
       d="M 6.71,2.75 C 10.35,0.37 14.89,1.1 19,0.98 c 77.67,0.03 155.34,0.03 233.01,0 4.11,0.12 8.64,-0.61 12.3,1.74 3.91,2.27 6.04,6.81 5.81,11.27 0.01,16.88 0.01,34.337331 -0.01,51.217331 -4.1,-0.11 -8.19,1.273326 -12.28,1.263326 C 257.8,48.940657 257.82,29.4 257.81,11.88 c -81.52,0 -163.04,0 -244.56,0 0,42.77 0,85.54 0,128.31 58.63,0 117.26,-0.03 175.89,0.01 -0.03,-22.42 -0.03,-44.84 0,-67.26 -0.44,-4.39 3.43,-8.44 7.86,-8.1 20.13,-0.07 -6.15127,-0.0948 60.4,-0.02 0.02,6.13 0.03,12.25 0.05,18.37 -21.19,-0.01 -42.38,0 -63.57,0 0,31.44 -0.01,64.60199 0,96.04199 -1.09,-0.07 -3.66823,-1.76828 -4.74823,-1.83828 0,-12.16 0.07,-24.32 -0.04,-36.47 -0.12,12.19 0.40823,24.19629 0.34823,36.38629 -7.38,0 -14.75,0 -22.13,0 0,11.81 0,23.63 0,35.44 5.92,-0.01 11.83,0 17.75,0 0,0.81 0,2.44 0,3.25 -33.02,0 -66.04,0 -99.06,0 0,-0.81 0,-2.44 0,-3.25 5.77,0 11.54,-0.01 17.31,0 0.01,-11.81 0,-23.62 0.01,-35.43 -30.1,-0.04 -60.19,0.03 -90.28,-0.03 C 6.51,177.53 0.66,171.62 1.01,165.09 0.98,114.73 1.02,64.38 0.99,14.02 0.69,9.58 2.83,5.04 6.71,2.75 z"
       id="path5-0"
       inkscape:connector-curvature="0"
       style="fill:#ffffff"
       sodipodi:nodetypes="cccccccccccccccccccccccccccccccc" />
    <path
       d="M 257.91413,64.906398 C 254.03656,64.637123 271.87,64.79 279.05,64.87 c 3.89,-0.17 7.5,3.12 7.51,7.04 0.21,17.63 -0.26329,39.40234 0.0167,57.01234 -1.38,0.56 -2.98671,6.25199 -4.32671,5.50199 -1.04,-1.73 -0.9,-13.49433 -0.97,-15.43433 0.07,-11.94 0.02,-23.87 0.04,-35.8 -7.93,0 -15.85,-0.01 -23.77,0 -0.01,-6.21 -3.79265,-12.362267 -3.79265,-18.572267 z"
       id="path7"
       inkscape:connector-curvature="0"
       style="fill:#ffffff"
       sodipodi:nodetypes="sccccccccs" />
    <path
       d="m 265,125.41012 c 38.12104,-0.80345 15.97782,1.10318 16.44,9.78988 -6,-0.03 -12.01,0 -18.01,-0.01 0.01,23.77 0.01,47.54 0.01,71.31 7.62,-0.01 15.25,0.02 22.88,-0.02 17.69662,-0.0392 9.71663,0.008 17.68,0.02 0,-23.77 0,-47.54 0,-71.31 -5.77,0 -34.891,0.31659 -40.661,0.33659 -0.84526,-11.67121 27.53529,-10.5325 37.561,-9.99659 3.16,0.22 5.37,3.4 5.09,6.46 0.03,25.67 0.01,51.34 0.01,77.01 0.48,3.49 -2.26,7.15 -5.93,6.94 -34.02,0.09 -68.05,0.03 -102.07,0.07 -2.41,0.04 -5.05,-0.34 -6.74,-2.24 -2.15,-1.96 -2.17,-5.03 -2.17,-7.71 0.05,-9.56 0.02,-19.13 0.03,-28.69 1.19,0.07 3.57,0.21 4.76,0.28 -0.01,7.41 0,14.82 0.01,22.23 22.44,-0.01 44.88,0.01 67.32,-0.01 -0.40542,11.26005 0.16271,-57.63698 0.16,-66.93 -0.18,-2.78 0.81,-6.44988 3.63,-7.52988 z"
       id="path9-3"
       inkscape:connector-curvature="0"
       style="fill:#ffffff"
       sodipodi:nodetypes="ccccccccccccccccccccc" />
    <path
       inkscape:connector-curvature="0"
       d="m 281.47,127.31 c 0.6,-1.79 2.85,-1.79 4.31,-1.16 0.75,2.94 0.46,6.04 0.7,9.05 -1.61,-0.01 -3.23,-0.01 -4.83,-0.01 -0.1,-2.63 -0.34,-5.25 -0.18,-7.88 z"
       id="path11-3"
       style="fill:#ffffff" />
  </g>
  <text
     xml:space="preserve"
     style="font-size:40px;font-style:normal;font-weight:normal;line-height:125%;letter-spacing:0px;word-spacing:0px;fill:#000000;fill-opacity:1;stroke:none;font-family:Sans"
     x="680.88989"
     y="-126.11699"
     id="text3297"
     sodipodi:linespacing="125%"
     transform="scale(0.8,0.8)"><tspan
       sodipodi:role="line"
       id="tspan3299"
       x="680.88989"
       y="-126.11699">Pantalla de login: 200 ancho </tspan></text>
  <rect
     y="318.7171"
     x="564.52374"
     height="278.96613"
     width="431.38135"
     id="rect3045"
     style="fill:#b3b3b3;fill-opacity:1;stroke:none" />
  <g
     id="g3131"
     transform="matrix(3.425399,0,0,3.425399,608.86226,305.54041)"
     style="fill:#ffffff;opacity:1"
     inkscape:export-xdpi="60.189999"
     inkscape:export-ydpi="60.189999"
     inkscape:export-filename="/Users/rotoxl/dev/proyectotest/cordova/imágenes/nube.png">
    <path
       id="path3117"
       d="m 68.078,37.04 c -0.066,0 -0.13,0.011 -0.196,0.011 C 67.174,26.663 58.416,18.358 47.9,18.358 c -11.058,0 -20.054,8.996 -20.054,20.054 0,2.509 0.473,4.926 1.362,7.22 -0.492,-0.057 -0.988,-0.095 -1.486,-0.095 -6.958,0 -12.62,5.661 -12.62,12.619 0,6.958 5.662,12.62 12.62,12.62 H 69.14 V 70.723 C 77.946,70.17 84.946,62.851 84.946,53.908 84.945,44.605 77.38,37.04 68.078,37.04 z m 0,31.86 H 27.722 c -5.926,0 -10.745,-4.819 -10.745,-10.745 0,-5.925 4.819,-10.744 10.745,-10.744 0.942,0 1.879,0.123 2.785,0.362 0.075,0.022 0.148,0.015 0.224,0.017 0.005,0 0.009,0.003 0.014,0.003 0.004,0 0.008,-10e-4 0.012,-10e-4 0.375,-0.002 0.707,-0.229 0.85,-0.586 0.007,-0.021 0.021,-0.039 0.027,-0.059 0.006,-0.015 0.017,-0.026 0.02,-0.041 0.017,-0.062 0.008,-0.121 0.012,-0.183 0.004,-0.051 0.013,-0.099 0.009,-0.152 -0.007,-0.064 -0.029,-0.123 -0.05,-0.183 -0.014,-0.05 -0.014,-0.099 -0.038,-0.146 -1.235,-2.509 -1.864,-5.211 -1.864,-8.031 0,-10.023 8.156,-18.179 18.179,-18.179 9.531,0 17.469,7.526 18.115,16.941 -1.812,0.22 -3.562,0.722 -5.225,1.518 -0.467,0.225 -0.664,0.784 -0.44,1.25 0.223,0.469 0.789,0.661 1.25,0.441 2.032,-0.974 4.212,-1.468 6.479,-1.468 8.268,0 14.992,6.725 14.992,14.992 C 83.07,62.175 76.346,68.9 68.078,68.9 z"
       inkscape:connector-curvature="0"
       style="fill:#ffffff" />
    <path
       id="path3119"
       d="m 57.5,56.562 h -15 c -0.519,0 -0.938,0.419 -0.938,0.938 0,0.519 0.419,0.938 0.938,0.938 h 8.438 v 2.812 c 0,2.067 1.681,3.75 3.75,3.75 2.069,0 3.75,-1.683 3.75,-3.75 V 57.5 c 0,-0.518 -0.419,-0.938 -0.938,-0.938 z m -2.812,6.563 c -1.033,0 -1.875,-0.84 -1.875,-1.875 v -2.812 h 3.75 v 2.812 c -0.001,1.035 -0.842,1.875 -1.875,1.875 z"
       inkscape:connector-curvature="0"
       style="fill:#ffffff" />
    <path
       id="path3121"
       d="m 41.837,52.538 c 0.184,0.183 0.423,0.274 0.663,0.274 0.24,0 0.479,-0.092 0.663,-0.274 0.366,-0.366 0.366,-0.96 0,-1.326 L 41.951,50 43.163,48.788 c 0.366,-0.366 0.366,-0.96 0,-1.326 -0.366,-0.366 -0.96,-0.366 -1.326,0 l -1.212,1.212 -1.212,-1.212 c -0.366,-0.366 -0.96,-0.366 -1.326,0 -0.366,0.366 -0.366,0.96 0,1.326 L 39.299,50 38.087,51.212 c -0.366,0.366 -0.366,0.96 0,1.326 0.184,0.183 0.423,0.274 0.663,0.274 0.24,0 0.479,-0.092 0.663,-0.274 l 1.212,-1.212 1.212,1.212 z"
       inkscape:connector-curvature="0"
       style="fill:#ffffff" />
    <path
       id="path3123"
       d="m 61.913,47.462 c -0.366,-0.366 -0.96,-0.366 -1.326,0 l -1.212,1.212 -1.212,-1.212 c -0.366,-0.366 -0.96,-0.366 -1.326,0 -0.366,0.366 -0.366,0.96 0,1.326 L 58.049,50 56.837,51.212 c -0.366,0.366 -0.366,0.96 0,1.326 0.184,0.183 0.423,0.274 0.663,0.274 0.24,0 0.479,-0.092 0.663,-0.274 l 1.212,-1.212 1.212,1.212 c 0.184,0.183 0.423,0.274 0.663,0.274 0.24,0 0.479,-0.092 0.663,-0.274 0.366,-0.366 0.366,-0.96 0,-1.326 L 60.701,50 61.913,48.788 c 0.366,-0.366 0.366,-0.96 0,-1.326 z"
       inkscape:connector-curvature="0"
       style="fill:#ffffff" />
  </g>
  <g
     id="g3057"
     inkscape:export-filename="/Users/rotoxl/dev/proyectotest/recursos/imágenes/icon144.png"
     inkscape:export-xdpi="34.91"
     inkscape:export-ydpi="34.91">
    <path
       sodipodi:type="arc"
       style="fill:#9db1c5;fill-opacity:1;stroke:none"
       id="path3116"
       sodipodi:cx="-9.3299789"
       sodipodi:cy="53.826801"
       sodipodi:rx="138.5143"
       sodipodi:ry="138.5143"
       d="m 129.18432,53.826801 a 138.5143,138.5143 0 1 1 -277.0286,0 138.5143,138.5143 0 1 1 277.0286,0 z"
       transform="matrix(1.07209,0,0,1.0720915,139.92548,713.40596)"
       inkscape:export-filename="/Users/rotoxl/dev/proyectotest/recursos/imágenes/icon512.png"
       inkscape:export-xdpi="124.12"
       inkscape:export-ydpi="124.12" />
    <path
       inkscape:export-ydpi="124.12"
       inkscape:export-xdpi="124.12"
       inkscape:export-filename="/Users/rotoxl/dev/proyectotest/recursos/imágenes/icon512.png"
       style="fill:#4a5867;fill-opacity:1"
       inkscape:connector-curvature="0"
       d="m 186.34743,705.44927 c 0,-0.77532 0,-1.55065 -0.25844,-2.32596 -1.80909,-7.23634 -4.91036,-12.40515 -7.49478,-15.76487 -17.83238,-22.74276 -55.0478,-19.12459 -57.6322,-19.12459 0,0 0,0 -0.25844,0 -2.84285,0 -37.732297,-3.35972 -54.789367,18.60771 -4.135041,5.42724 -6.461007,11.37138 -7.494769,16.28175 -0.258441,0.77531 -0.258441,2.32596 -0.258441,3.10127 l 8.011648,145.50194 h 0 l -1.550639,17.83238 c 0.516876,1.55064 1.550639,1.2922 2.325964,1.80908 4.393489,3.61816 12.922018,2.84285 15.764859,2.58441 0.516886,0 1.033762,0 1.550649,-0.25845 2.584402,0 10.596059,0.25845 14.989535,-3.10127 1.292211,-1.03377 1.809091,-1.03377 2.325961,-2.06753 l -0.77531,-8.01165 c -1.033766,-5.16881 3.61816,-8.78697 9.30386,-8.78697 h 24.03495 c 5.94413,0 10.33761,3.61816 9.82073,9.0454 l -0.77532,8.52855 c 0.51688,1.55063 1.55065,1.2922 2.32596,2.06751 4.3935,3.61816 12.92203,2.84285 15.76488,2.58441 0.51687,0 1.03376,0 1.55063,0 2.58441,0 10.59606,0.25844 14.98956,-3.10129 1.29219,-1.03376 1.80907,-1.03376 2.32596,-2.06752 -0.51689,-6.20257 -1.03377,-12.40514 -1.55066,-18.60771 l 7.75322,-144.7266 z m -64.6101,58.40751 c -20.15836,0 -36.440093,-16.28173 -36.440093,-36.18164 0,-19.8999 16.281733,-36.18165 36.440093,-36.18165 20.15836,0 36.4401,16.28175 36.4401,36.18165 0,19.89991 -16.28174,36.18164 -36.4401,36.18164 z m 0,-57.6322 c -11.88826,0 -21.70899,9.5623 -21.70899,21.45056 0,11.88826 9.82073,21.45055 21.70899,21.45055 11.88826,0 21.70899,-9.56229 21.70899,-21.45055 0,-11.88826 -9.82073,-21.45056 -21.70899,-21.45056 z m 8.52854,36.95698 c -1.80909,0 -3.61817,-1.55064 -3.61817,-3.35972 0,-1.80909 1.55064,-3.35973 3.61817,-3.35973 1.80908,0 3.61816,1.55064 3.61816,3.35973 0,1.80908 -1.55065,3.35972 -3.61816,3.35972 z m 0,-13.69734 c -4.3935,0 -8.01165,-3.61817 -8.01165,-7.75322 0,-4.39347 3.61815,-7.7532 8.01165,-7.7532 4.39347,0 8.01165,3.61817 8.01165,7.7532 0,4.13505 -3.61818,7.75322 -8.01165,7.75322 z m -25.06873,31.78817 c -1.03375,-0.51688 -2.06751,-1.03376 -3.61817,-1.03376 -2.325961,0 -4.910358,1.03376 -6.977889,1.80908 -3.359716,1.55064 -5.168803,4.39348 -7.236329,7.23633 -1.292201,2.06752 -2.584402,4.13504 -4.393479,5.68569 -0.516887,0.51687 -1.033763,1.03375 -1.550649,1.55063 0,0 0,0 0,0 -3.359727,3.61817 -5.685691,8.2701 -7.753206,12.66359 -2.067525,4.13504 -4.393489,8.52853 -7.494777,12.14669 -4.393479,4.65193 -7.494767,10.07918 -10.854491,15.24798 -3.359725,5.42726 -6.71945,10.8545 -11.112937,15.76487 -6.461009,6.97789 -14.21422,12.40513 -22.225871,15.76486 -2.325963,1.03377 -3.618165,2.84285 -3.359725,4.91037 0,2.06752 1.292202,3.8766 3.359725,4.65193 4.393486,1.55063 8.528531,2.06752 12.922018,2.06752 0.516881,0 1.033761,0 1.550643,0 6.719449,-0.25844 19.124587,-2.06752 26.102474,-10.07918 0.775324,-1.03376 2.325964,-2.5844 4.135051,-4.13505 2.067525,-2.06751 4.135041,-4.13504 5.168803,-5.42724 7.753215,-9.30386 14.989545,-13.4389 24.810281,-17.05707 2.067521,-0.77532 3.359728,-2.84284 3.359728,-4.91037 -0.775331,-17.57394 1.2922,-40.83357 5.1688,-56.85687 z m -68.228256,95.62293 c -3.359726,0.25844 -6.20257,-0.77532 -6.461011,-2.84284 -0.258439,-1.80909 2.325964,-3.87661 5.685689,-4.13505 3.359725,-0.25844 6.202569,0.77532 6.461009,2.84285 0,2.06752 -2.325964,3.87661 -5.685687,4.13504 z m 17.832385,-5.68569 c -3.876606,1.2922 -7.49477,0.51689 -8.270092,-1.80908 -0.775322,-2.32596 1.550642,-5.16881 5.427248,-6.46101 3.876605,-1.2922 7.494771,-0.51688 8.270088,1.80908 0.775325,2.06753 -1.550639,5.16881 -5.427244,6.46101 z m 15.506423,-11.62982 c -1.550639,2.06753 -4.651927,2.58442 -6.977891,1.03376 -2.325963,-1.55063 -2.842839,-4.65193 -1.292201,-6.71944 1.550639,-2.06752 4.651928,-2.58441 6.977892,-1.03376 2.325963,1.55064 2.842839,4.65193 1.2922,6.71944 z M 251.4744,731.81018 c -7.23633,-2.32596 -13.69733,-3.10129 -19.64147,-2.5844 -9.0454,1.03377 -17.05706,5.42724 -21.19211,12.14669 -2.06752,3.61817 -3.35971,7.49477 -4.39348,11.37139 -0.77532,3.10127 -1.80909,6.461 -3.10128,9.30385 -2.06753,4.39348 -5.42725,8.01165 -9.5623,10.8545 -4.13504,2.84284 -9.04541,4.39348 -13.69734,4.65192 -0.51688,0 -1.03375,0 -1.55064,0 -4.39349,0 -8.78697,-1.03377 -12.66359,-3.10129 -4.39347,-2.32596 -8.01164,-5.68569 -10.59605,-9.56229 -4.65192,8.27009 -9.30385,16.28174 -13.95578,24.55184 -1.03376,1.80907 -2.06752,3.61816 -2.5844,5.68568 -0.77532,3.61817 0.25844,8.78697 5.42724,13.4389 3.10129,2.5844 6.9779,4.65193 12.66359,6.46102 7.75321,2.5844 16.28174,4.65193 25.84403,5.94413 8.52854,1.29219 18.09083,2.06751 25.5856,-2.58442 8.01165,-4.91037 11.62982,-14.47266 14.73111,-24.55182 2.84284,-9.30386 5.68569,-18.60771 8.52853,-27.65313 3.35972,-11.11293 8.01165,-23.51807 18.60771,-28.17 0.51687,-0.25844 1.03376,-0.51688 1.55063,-0.77531 0.25844,0 0.51689,-0.25845 0.77533,-0.25845 1.29219,-0.51688 1.80907,-1.55064 1.80907,-2.84284 -1.03376,-1.29221 -1.55064,-2.06753 -2.5844,-2.32597 z m -59.18284,85.02689 c -4.13505,0.51688 -8.01166,-1.29221 -8.27009,-3.87661 -0.25844,-2.5844 2.84284,-5.42725 7.23632,-5.94412 4.13506,-0.5169 8.01166,1.29219 8.2701,3.8766 0.25843,2.84284 -2.84284,5.42725 -7.23633,5.94413 z m 18.09082,-9.82073 c -1.55064,2.06752 -4.39348,2.58439 -6.46101,1.03376 -2.06752,-1.55066 -2.58439,-4.65193 -1.29219,-6.71946 1.55064,-2.06752 4.39348,-2.5844 6.461,-1.03376 2.06753,1.55064 2.5844,4.39349 1.2922,6.71946 z m 8.52854,-13.43891 c -1.55065,3.35972 -4.65193,5.42725 -6.97789,4.13505 -2.32597,-1.03376 -3.10129,-4.91037 -1.55065,-8.27009 1.55065,-3.35973 4.65193,-5.42726 6.97789,-4.13506 2.32597,1.03376 3.10129,4.65193 1.55065,8.2701 z m 7.23633,-19.12459 c -0.77533,3.61817 -3.61816,6.20257 -6.20258,5.42726 -2.5844,-0.77533 -3.8766,-4.13505 -2.84284,-7.75322 0.77533,-3.61817 3.61817,-6.20257 6.20257,-5.42724 2.32597,0.51688 3.61816,4.13504 2.84285,7.7532 z m 0,-13.69733 c -2.32596,0.25843 -4.65193,-1.03376 -4.91038,-3.10129 -0.25843,-1.80909 1.55066,-3.61817 4.13505,-3.8766 2.32597,-0.25845 4.65193,1.03376 4.91037,3.10127 0,1.80909 -1.80907,3.61817 -4.13504,3.87662 z m 9.04541,-14.98954 c -2.84284,2.84284 -6.46101,3.61815 -8.2701,1.80908 -1.80907,-1.80908 -0.77531,-5.42725 2.06753,-8.01165 2.84284,-2.58441 6.46102,-3.61816 8.2701,-1.80909 1.80908,1.55064 0.77531,5.16881 -2.06753,8.01166 z"
       id="path3096" />
  </g>
  <flowRoot
     xml:space="preserve"
     id="flowRoot3080"
     style="font-size:40px;font-style:normal;font-weight:normal;line-height:125%;letter-spacing:0px;word-spacing:0px;fill:#000000;fill-opacity:1;stroke:none;font-family:Sans"
     transform="scale(0.8,0.8)"><flowRegion
       id="flowRegion3082"><rect
         id="rect3084"
         width="0"
         height="130.33536"
         x="-1478.6322"
         y="1082.8558" /></flowRegion><flowPara
       id="flowPara3086">+++</flowPara></flowRoot>  <rect
     style="fill:#4a5867;fill-opacity:1;fill-rule:evenodd;stroke:none"
     id="rect3068"
     width="819.20001"
     height="400"
     x="-974.3692"
     y="1327.3969" />
  <g
     id="g3147">
    <g
       transform="translate(-909.65092,756.28363)"
       id="g3061">
      <path
         sodipodi:type="arc"
         style="fill:#9db1c5;fill-opacity:1;stroke:none"
         id="path3064"
         sodipodi:cx="-9.3299789"
         sodipodi:cy="53.826801"
         sodipodi:rx="138.5143"
         sodipodi:ry="138.5143"
         d="m 129.18432,53.826801 c 0,76.499339 -62.014965,138.514299 -138.5142989,138.514299 -76.4993341,0 -138.5143011,-62.01496 -138.5143011,-138.514299 0,-76.499334 62.014967,-138.514297 138.5143011,-138.514297 76.4993339,0 138.5142989,62.014963 138.5142989,138.514297 z"
         transform="matrix(1.07209,0,0,1.0720915,139.92548,713.40596)"
         inkscape:export-filename="/Users/rotoxl/dev/proyectotest/recursos/imágenes/icon512.png"
         inkscape:export-xdpi="124.12"
         inkscape:export-ydpi="124.12" />
      <path
         inkscape:export-ydpi="124.12"
         inkscape:export-xdpi="124.12"
         inkscape:export-filename="/Users/rotoxl/dev/proyectotest/recursos/imágenes/icon512.png"
         style="fill:#4a5867;fill-opacity:1"
         inkscape:connector-curvature="0"
         d="m 186.34743,705.44927 c 0,-0.77532 0,-1.55065 -0.25844,-2.32596 -1.80909,-7.23634 -4.91036,-12.40515 -7.49478,-15.76487 -17.83238,-22.74276 -55.0478,-19.12459 -57.6322,-19.12459 0,0 0,0 -0.25844,0 -2.84285,0 -37.732297,-3.35972 -54.789367,18.60771 -4.135041,5.42724 -6.461007,11.37138 -7.494769,16.28175 -0.258441,0.77531 -0.258441,2.32596 -0.258441,3.10127 l 8.011648,145.50194 h 0 l -1.550639,17.83238 c 0.516876,1.55064 1.550639,1.2922 2.325964,1.80908 4.393489,3.61816 12.922018,2.84285 15.764859,2.58441 0.516886,0 1.033762,0 1.550649,-0.25845 2.584402,0 10.596059,0.25845 14.989535,-3.10127 1.292211,-1.03377 1.809091,-1.03377 2.325961,-2.06753 l -0.77531,-8.01165 c -1.033766,-5.16881 3.61816,-8.78697 9.30386,-8.78697 h 24.03495 c 5.94413,0 10.33761,3.61816 9.82073,9.0454 l -0.77532,8.52855 c 0.51688,1.55063 1.55065,1.2922 2.32596,2.06751 4.3935,3.61816 12.92203,2.84285 15.76488,2.58441 0.51687,0 1.03376,0 1.55063,0 2.58441,0 10.59606,0.25844 14.98956,-3.10129 1.29219,-1.03376 1.80907,-1.03376 2.32596,-2.06752 -0.51689,-6.20257 -1.03377,-12.40514 -1.55066,-18.60771 l 7.75322,-144.7266 z m -64.6101,58.40751 c -20.15836,0 -36.440093,-16.28173 -36.440093,-36.18164 0,-19.8999 16.281733,-36.18165 36.440093,-36.18165 20.15836,0 36.4401,16.28175 36.4401,36.18165 0,19.89991 -16.28174,36.18164 -36.4401,36.18164 z m 0,-57.6322 c -11.88826,0 -21.70899,9.5623 -21.70899,21.45056 0,11.88826 9.82073,21.45055 21.70899,21.45055 11.88826,0 21.70899,-9.56229 21.70899,-21.45055 0,-11.88826 -9.82073,-21.45056 -21.70899,-21.45056 z m 8.52854,36.95698 c -1.80909,0 -3.61817,-1.55064 -3.61817,-3.35972 0,-1.80909 1.55064,-3.35973 3.61817,-3.35973 1.80908,0 3.61816,1.55064 3.61816,3.35973 0,1.80908 -1.55065,3.35972 -3.61816,3.35972 z m 0,-13.69734 c -4.3935,0 -8.01165,-3.61817 -8.01165,-7.75322 0,-4.39347 3.61815,-7.7532 8.01165,-7.7532 4.39347,0 8.01165,3.61817 8.01165,7.7532 0,4.13505 -3.61818,7.75322 -8.01165,7.75322 z m -25.06873,31.78817 c -1.03375,-0.51688 -2.06751,-1.03376 -3.61817,-1.03376 -2.325961,0 -4.910358,1.03376 -6.977889,1.80908 -3.359716,1.55064 -5.168803,4.39348 -7.236329,7.23633 -1.292201,2.06752 -2.584402,4.13504 -4.393479,5.68569 -0.516887,0.51687 -1.033763,1.03375 -1.550649,1.55063 0,0 0,0 0,0 -3.359727,3.61817 -5.685691,8.2701 -7.753206,12.66359 -2.067525,4.13504 -4.393489,8.52853 -7.494777,12.14669 -4.393479,4.65193 -7.494767,10.07918 -10.854491,15.24798 -3.359725,5.42726 -6.71945,10.8545 -11.112937,15.76487 -6.461009,6.97789 -14.21422,12.40513 -22.225871,15.76486 -2.325963,1.03377 -3.618165,2.84285 -3.359725,4.91037 0,2.06752 1.292202,3.8766 3.359725,4.65193 4.393486,1.55063 8.528531,2.06752 12.922018,2.06752 0.516881,0 1.033761,0 1.550643,0 6.719449,-0.25844 19.124587,-2.06752 26.102474,-10.07918 0.775324,-1.03376 2.325964,-2.5844 4.135051,-4.13505 2.067525,-2.06751 4.135041,-4.13504 5.168803,-5.42724 7.753215,-9.30386 14.989545,-13.4389 24.810281,-17.05707 2.067521,-0.77532 3.359728,-2.84284 3.359728,-4.91037 -0.775331,-17.57394 1.2922,-40.83357 5.1688,-56.85687 z m -68.228256,95.62293 c -3.359726,0.25844 -6.20257,-0.77532 -6.461011,-2.84284 -0.258439,-1.80909 2.325964,-3.87661 5.685689,-4.13505 3.359725,-0.25844 6.202569,0.77532 6.461009,2.84285 0,2.06752 -2.325964,3.87661 -5.685687,4.13504 z m 17.832385,-5.68569 c -3.876606,1.2922 -7.49477,0.51689 -8.270092,-1.80908 -0.775322,-2.32596 1.550642,-5.16881 5.427248,-6.46101 3.876605,-1.2922 7.494771,-0.51688 8.270088,1.80908 0.775325,2.06753 -1.550639,5.16881 -5.427244,6.46101 z m 15.506423,-11.62982 c -1.550639,2.06753 -4.651927,2.58442 -6.977891,1.03376 -2.325963,-1.55063 -2.842839,-4.65193 -1.292201,-6.71944 1.550639,-2.06752 4.651928,-2.58441 6.977892,-1.03376 2.325963,1.55064 2.842839,4.65193 1.2922,6.71944 z M 251.4744,731.81018 c -7.23633,-2.32596 -13.69733,-3.10129 -19.64147,-2.5844 -9.0454,1.03377 -17.05706,5.42724 -21.19211,12.14669 -2.06752,3.61817 -3.35971,7.49477 -4.39348,11.37139 -0.77532,3.10127 -1.80909,6.461 -3.10128,9.30385 -2.06753,4.39348 -5.42725,8.01165 -9.5623,10.8545 -4.13504,2.84284 -9.04541,4.39348 -13.69734,4.65192 -0.51688,0 -1.03375,0 -1.55064,0 -4.39349,0 -8.78697,-1.03377 -12.66359,-3.10129 -4.39347,-2.32596 -8.01164,-5.68569 -10.59605,-9.56229 -4.65192,8.27009 -9.30385,16.28174 -13.95578,24.55184 -1.03376,1.80907 -2.06752,3.61816 -2.5844,5.68568 -0.77532,3.61817 0.25844,8.78697 5.42724,13.4389 3.10129,2.5844 6.9779,4.65193 12.66359,6.46102 7.75321,2.5844 16.28174,4.65193 25.84403,5.94413 8.52854,1.29219 18.09083,2.06751 25.5856,-2.58442 8.01165,-4.91037 11.62982,-14.47266 14.73111,-24.55182 2.84284,-9.30386 5.68569,-18.60771 8.52853,-27.65313 3.35972,-11.11293 8.01165,-23.51807 18.60771,-28.17 0.51687,-0.25844 1.03376,-0.51688 1.55063,-0.77531 0.25844,0 0.51689,-0.25845 0.77533,-0.25845 1.29219,-0.51688 1.80907,-1.55064 1.80907,-2.84284 -1.03376,-1.29221 -1.55064,-2.06753 -2.5844,-2.32597 z m -59.18284,85.02689 c -4.13505,0.51688 -8.01166,-1.29221 -8.27009,-3.87661 -0.25844,-2.5844 2.84284,-5.42725 7.23632,-5.94412 4.13506,-0.5169 8.01166,1.29219 8.2701,3.8766 0.25843,2.84284 -2.84284,5.42725 -7.23633,5.94413 z m 18.09082,-9.82073 c -1.55064,2.06752 -4.39348,2.58439 -6.46101,1.03376 -2.06752,-1.55066 -2.58439,-4.65193 -1.29219,-6.71946 1.55064,-2.06752 4.39348,-2.5844 6.461,-1.03376 2.06753,1.55064 2.5844,4.39349 1.2922,6.71946 z m 8.52854,-13.43891 c -1.55065,3.35972 -4.65193,5.42725 -6.97789,4.13505 -2.32597,-1.03376 -3.10129,-4.91037 -1.55065,-8.27009 1.55065,-3.35973 4.65193,-5.42726 6.97789,-4.13506 2.32597,1.03376 3.10129,4.65193 1.55065,8.2701 z m 7.23633,-19.12459 c -0.77533,3.61817 -3.61816,6.20257 -6.20258,5.42726 -2.5844,-0.77533 -3.8766,-4.13505 -2.84284,-7.75322 0.77533,-3.61817 3.61817,-6.20257 6.20257,-5.42724 2.32597,0.51688 3.61816,4.13504 2.84285,7.7532 z m 0,-13.69733 c -2.32596,0.25843 -4.65193,-1.03376 -4.91038,-3.10129 -0.25843,-1.80909 1.55066,-3.61817 4.13505,-3.8766 2.32597,-0.25845 4.65193,1.03376 4.91037,3.10127 0,1.80909 -1.80907,3.61817 -4.13504,3.87662 z m 9.04541,-14.98954 c -2.84284,2.84284 -6.46101,3.61815 -8.2701,1.80908 -1.80907,-1.80908 -0.77531,-5.42725 2.06753,-8.01165 2.84284,-2.58441 6.46102,-3.61816 8.2701,-1.80909 1.80908,1.55064 0.77531,5.16881 -2.06753,8.01166 z"
         id="path3066" />
    </g>
    <g
       transform="translate(0,22.436765)"
       id="g3100">
      <flowRoot
         xml:space="preserve"
         id="flowRoot3070"
         style="font-size:80px;font-style:normal;font-weight:normal;line-height:125%;letter-spacing:0px;word-spacing:0px;fill:#ffffff;fill-opacity:1;stroke:none;font-family:Sans"
         transform="matrix(0.8,0,0,0.8,-3.4703369,49.231944)"><flowRegion
           id="flowRegion3072"><rect
             id="rect3074"
             width="532.57727"
             height="332.5799"
             x="-752.79907"
             y="1705.3196"
             style="font-size:80px;fill:#ffffff" /></flowRegion><flowPara
           id="flowPara3076"
           style="font-size:80px" /><flowPara
           id="flowPara3078"
           style="font-size:40px">Tests de oposiciones, certificaciones y más</flowPara></flowRoot>      <text
         xml:space="preserve"
         style="font-size:32px;font-style:normal;font-weight:normal;line-height:125%;letter-spacing:0px;word-spacing:0px;fill:#000000;fill-opacity:1;stroke:none;font-family:Sans"
         x="-608.95471"
         y="1479.6611"
         id="text3096"
         sodipodi:linespacing="125%"><tspan
           sodipodi:role="line"
           id="tspan3098"
           x="-608.95471"
           y="1479.6611"
           style="font-size:57.59999847px;fill:#ffffff">Octopus</tspan></text>
    </g>
  </g>
  <flowRoot
     xml:space="preserve"
     id="flowRoot3123"
     style="font-size:40px;font-style:normal;font-weight:normal;line-height:125%;letter-spacing:0px;word-spacing:0px;fill:#000000;fill-opacity:1;stroke:none;font-family:Sans"
     transform="matrix(0.8,0,0,0.8,-34.322034,-45.762712)"><flowRegion
       id="flowRegion3125"><rect
         id="rect3127"
         width="1177.4364"
         height="155.72028"
         x="-1215.572"
         y="1546.0804" /></flowRegion><flowPara
       id="flowPara3129">google play</flowPara><flowPara
       id="flowPara3133">* imagen destacada: 1024x500,</flowPara><flowPara
       id="flowPara3131">* imagen promo: 180x120</flowPara></flowRoot>  <g
     id="g3186"
     inkscape:export-filename="/Users/rotoxl/dev/proyectotest/recursos/imágenes/imgPromo180x120.png"
     inkscape:export-xdpi="90"
     inkscape:export-ydpi="90">
    <rect
       style="fill:#4a5867;fill-opacity:1;fill-rule:evenodd;stroke:none"
       id="rect3160"
       width="144"
       height="96"
       x="-98.521797"
       y="1466.1425" />
    <g
       transform="matrix(0.21032358,0,0,0.21032358,98.727014,1192.8949)"
       id="g3162">
      <g
         transform="translate(-909.65092,756.28363)"
         id="g3164">
        <path
           sodipodi:type="arc"
           style="fill:#9db1c5;fill-opacity:1;stroke:none"
           id="path3166"
           sodipodi:cx="-9.3299789"
           sodipodi:cy="53.826801"
           sodipodi:rx="138.5143"
           sodipodi:ry="138.5143"
           d="m 129.18432,53.826801 c 0,76.499339 -62.014965,138.514299 -138.5142989,138.514299 -76.4993341,0 -138.5143011,-62.01496 -138.5143011,-138.514299 0,-76.499334 62.014967,-138.514297 138.5143011,-138.514297 76.4993339,0 138.5142989,62.014963 138.5142989,138.514297 z"
           transform="matrix(1.07209,0,0,1.0720915,139.92548,713.40596)"
           inkscape:export-filename="/Users/rotoxl/dev/proyectotest/recursos/imágenes/icon512.png"
           inkscape:export-xdpi="124.12"
           inkscape:export-ydpi="124.12" />
        <path
           inkscape:export-ydpi="124.12"
           inkscape:export-xdpi="124.12"
           inkscape:export-filename="/Users/rotoxl/dev/proyectotest/recursos/imágenes/icon512.png"
           style="fill:#4a5867;fill-opacity:1"
           inkscape:connector-curvature="0"
           d="m 186.34743,705.44927 c 0,-0.77532 0,-1.55065 -0.25844,-2.32596 -1.80909,-7.23634 -4.91036,-12.40515 -7.49478,-15.76487 -17.83238,-22.74276 -55.0478,-19.12459 -57.6322,-19.12459 0,0 0,0 -0.25844,0 -2.84285,0 -37.732297,-3.35972 -54.789367,18.60771 -4.135041,5.42724 -6.461007,11.37138 -7.494769,16.28175 -0.258441,0.77531 -0.258441,2.32596 -0.258441,3.10127 l 8.011648,145.50194 h 0 l -1.550639,17.83238 c 0.516876,1.55064 1.550639,1.2922 2.325964,1.80908 4.393489,3.61816 12.922018,2.84285 15.764859,2.58441 0.516886,0 1.033762,0 1.550649,-0.25845 2.584402,0 10.596059,0.25845 14.989535,-3.10127 1.292211,-1.03377 1.809091,-1.03377 2.325961,-2.06753 l -0.77531,-8.01165 c -1.033766,-5.16881 3.61816,-8.78697 9.30386,-8.78697 h 24.03495 c 5.94413,0 10.33761,3.61816 9.82073,9.0454 l -0.77532,8.52855 c 0.51688,1.55063 1.55065,1.2922 2.32596,2.06751 4.3935,3.61816 12.92203,2.84285 15.76488,2.58441 0.51687,0 1.03376,0 1.55063,0 2.58441,0 10.59606,0.25844 14.98956,-3.10129 1.29219,-1.03376 1.80907,-1.03376 2.32596,-2.06752 -0.51689,-6.20257 -1.03377,-12.40514 -1.55066,-18.60771 l 7.75322,-144.7266 z m -64.6101,58.40751 c -20.15836,0 -36.440093,-16.28173 -36.440093,-36.18164 0,-19.8999 16.281733,-36.18165 36.440093,-36.18165 20.15836,0 36.4401,16.28175 36.4401,36.18165 0,19.89991 -16.28174,36.18164 -36.4401,36.18164 z m 0,-57.6322 c -11.88826,0 -21.70899,9.5623 -21.70899,21.45056 0,11.88826 9.82073,21.45055 21.70899,21.45055 11.88826,0 21.70899,-9.56229 21.70899,-21.45055 0,-11.88826 -9.82073,-21.45056 -21.70899,-21.45056 z m 8.52854,36.95698 c -1.80909,0 -3.61817,-1.55064 -3.61817,-3.35972 0,-1.80909 1.55064,-3.35973 3.61817,-3.35973 1.80908,0 3.61816,1.55064 3.61816,3.35973 0,1.80908 -1.55065,3.35972 -3.61816,3.35972 z m 0,-13.69734 c -4.3935,0 -8.01165,-3.61817 -8.01165,-7.75322 0,-4.39347 3.61815,-7.7532 8.01165,-7.7532 4.39347,0 8.01165,3.61817 8.01165,7.7532 0,4.13505 -3.61818,7.75322 -8.01165,7.75322 z m -25.06873,31.78817 c -1.03375,-0.51688 -2.06751,-1.03376 -3.61817,-1.03376 -2.325961,0 -4.910358,1.03376 -6.977889,1.80908 -3.359716,1.55064 -5.168803,4.39348 -7.236329,7.23633 -1.292201,2.06752 -2.584402,4.13504 -4.393479,5.68569 -0.516887,0.51687 -1.033763,1.03375 -1.550649,1.55063 0,0 0,0 0,0 -3.359727,3.61817 -5.685691,8.2701 -7.753206,12.66359 -2.067525,4.13504 -4.393489,8.52853 -7.494777,12.14669 -4.393479,4.65193 -7.494767,10.07918 -10.854491,15.24798 -3.359725,5.42726 -6.71945,10.8545 -11.112937,15.76487 -6.461009,6.97789 -14.21422,12.40513 -22.225871,15.76486 -2.325963,1.03377 -3.618165,2.84285 -3.359725,4.91037 0,2.06752 1.292202,3.8766 3.359725,4.65193 4.393486,1.55063 8.528531,2.06752 12.922018,2.06752 0.516881,0 1.033761,0 1.550643,0 6.719449,-0.25844 19.124587,-2.06752 26.102474,-10.07918 0.775324,-1.03376 2.325964,-2.5844 4.135051,-4.13505 2.067525,-2.06751 4.135041,-4.13504 5.168803,-5.42724 7.753215,-9.30386 14.989545,-13.4389 24.810281,-17.05707 2.067521,-0.77532 3.359728,-2.84284 3.359728,-4.91037 -0.775331,-17.57394 1.2922,-40.83357 5.1688,-56.85687 z m -68.228256,95.62293 c -3.359726,0.25844 -6.20257,-0.77532 -6.461011,-2.84284 -0.258439,-1.80909 2.325964,-3.87661 5.685689,-4.13505 3.359725,-0.25844 6.202569,0.77532 6.461009,2.84285 0,2.06752 -2.325964,3.87661 -5.685687,4.13504 z m 17.832385,-5.68569 c -3.876606,1.2922 -7.49477,0.51689 -8.270092,-1.80908 -0.775322,-2.32596 1.550642,-5.16881 5.427248,-6.46101 3.876605,-1.2922 7.494771,-0.51688 8.270088,1.80908 0.775325,2.06753 -1.550639,5.16881 -5.427244,6.46101 z m 15.506423,-11.62982 c -1.550639,2.06753 -4.651927,2.58442 -6.977891,1.03376 -2.325963,-1.55063 -2.842839,-4.65193 -1.292201,-6.71944 1.550639,-2.06752 4.651928,-2.58441 6.977892,-1.03376 2.325963,1.55064 2.842839,4.65193 1.2922,6.71944 z M 251.4744,731.81018 c -7.23633,-2.32596 -13.69733,-3.10129 -19.64147,-2.5844 -9.0454,1.03377 -17.05706,5.42724 -21.19211,12.14669 -2.06752,3.61817 -3.35971,7.49477 -4.39348,11.37139 -0.77532,3.10127 -1.80909,6.461 -3.10128,9.30385 -2.06753,4.39348 -5.42725,8.01165 -9.5623,10.8545 -4.13504,2.84284 -9.04541,4.39348 -13.69734,4.65192 -0.51688,0 -1.03375,0 -1.55064,0 -4.39349,0 -8.78697,-1.03377 -12.66359,-3.10129 -4.39347,-2.32596 -8.01164,-5.68569 -10.59605,-9.56229 -4.65192,8.27009 -9.30385,16.28174 -13.95578,24.55184 -1.03376,1.80907 -2.06752,3.61816 -2.5844,5.68568 -0.77532,3.61817 0.25844,8.78697 5.42724,13.4389 3.10129,2.5844 6.9779,4.65193 12.66359,6.46102 7.75321,2.5844 16.28174,4.65193 25.84403,5.94413 8.52854,1.29219 18.09083,2.06751 25.5856,-2.58442 8.01165,-4.91037 11.62982,-14.47266 14.73111,-24.55182 2.84284,-9.30386 5.68569,-18.60771 8.52853,-27.65313 3.35972,-11.11293 8.01165,-23.51807 18.60771,-28.17 0.51687,-0.25844 1.03376,-0.51688 1.55063,-0.77531 0.25844,0 0.51689,-0.25845 0.77533,-0.25845 1.29219,-0.51688 1.80907,-1.55064 1.80907,-2.84284 -1.03376,-1.29221 -1.55064,-2.06753 -2.5844,-2.32597 z m -59.18284,85.02689 c -4.13505,0.51688 -8.01166,-1.29221 -8.27009,-3.87661 -0.25844,-2.5844 2.84284,-5.42725 7.23632,-5.94412 4.13506,-0.5169 8.01166,1.29219 8.2701,3.8766 0.25843,2.84284 -2.84284,5.42725 -7.23633,5.94413 z m 18.09082,-9.82073 c -1.55064,2.06752 -4.39348,2.58439 -6.46101,1.03376 -2.06752,-1.55066 -2.58439,-4.65193 -1.29219,-6.71946 1.55064,-2.06752 4.39348,-2.5844 6.461,-1.03376 2.06753,1.55064 2.5844,4.39349 1.2922,6.71946 z m 8.52854,-13.43891 c -1.55065,3.35972 -4.65193,5.42725 -6.97789,4.13505 -2.32597,-1.03376 -3.10129,-4.91037 -1.55065,-8.27009 1.55065,-3.35973 4.65193,-5.42726 6.97789,-4.13506 2.32597,1.03376 3.10129,4.65193 1.55065,8.2701 z m 7.23633,-19.12459 c -0.77533,3.61817 -3.61816,6.20257 -6.20258,5.42726 -2.5844,-0.77533 -3.8766,-4.13505 -2.84284,-7.75322 0.77533,-3.61817 3.61817,-6.20257 6.20257,-5.42724 2.32597,0.51688 3.61816,4.13504 2.84285,7.7532 z m 0,-13.69733 c -2.32596,0.25843 -4.65193,-1.03376 -4.91038,-3.10129 -0.25843,-1.80909 1.55066,-3.61817 4.13505,-3.8766 2.32597,-0.25845 4.65193,1.03376 4.91037,3.10127 0,1.80909 -1.80907,3.61817 -4.13504,3.87662 z m 9.04541,-14.98954 c -2.84284,2.84284 -6.46101,3.61815 -8.2701,1.80908 -1.80907,-1.80908 -0.77531,-5.42725 2.06753,-8.01165 2.84284,-2.58441 6.46102,-3.61816 8.2701,-1.80909 1.80908,1.55064 0.77531,5.16881 -2.06753,8.01166 z"
           id="path3168" />
      </g>
      <g
         transform="translate(0,22.436765)"
         id="g3170">
        <flowRoot
           xml:space="preserve"
           id="flowRoot3172"
           style="font-size:80px;font-style:normal;font-weight:normal;line-height:125%;letter-spacing:0px;word-spacing:0px;fill:#ffffff;fill-opacity:1;stroke:none;font-family:Sans"
           transform="matrix(0.8,0,0,0.8,-3.4703369,49.231944)"><flowRegion
             id="flowRegion3174"><rect
               id="rect3176"
               width="532.57727"
               height="332.5799"
               x="-752.79907"
               y="1705.3196"
               style="font-size:80px;fill:#ffffff" /></flowRegion><flowPara
             id="flowPara3178"
             style="font-size:80px" /><flowPara
             id="flowPara3180"
             style="font-size:40px">Tests de oposiciones, certificaciones y más</flowPara></flowRoot>        <text
           xml:space="preserve"
           style="font-size:32px;font-style:normal;font-weight:normal;line-height:125%;letter-spacing:0px;word-spacing:0px;fill:#000000;fill-opacity:1;stroke:none;font-family:Sans"
           x="-608.95471"
           y="1479.6611"
           id="text3182"
           sodipodi:linespacing="125%"><tspan
             sodipodi:role="line"
             id="tspan3184"
             x="-608.95471"
             y="1479.6611"
             style="font-size:57.59999847px;fill:#ffffff">Octopus</tspan></text>
      </g>
    </g>
  </g>
  <flowRoot
     transform="matrix(0.8,0,0,0.8,-54.097054,547.48789)"
     style="font-size:40px;font-style:normal;font-weight:normal;line-height:125%;letter-spacing:0px;word-spacing:0px;fill:#000000;fill-opacity:1;stroke:none;font-family:Sans"
     id="flowRoot3095"
     xml:space="preserve"><flowRegion
       id="flowRegion3097"><rect
         y="1546.0804"
         x="-1215.572"
         height="155.72028"
         width="1177.4364"
         id="rect3099" /></flowRegion><flowPara
       id="flowPara3101">fb</flowPara><flowPara
       id="flowPara3103">* imagen destacada: 851x315,</flowPara><flowPara
       id="flowPara3105">* ico: 160x160</flowPara></flowRoot>  <g
     id="g3181"
     inkscape:export-filename="/Users/rotoxl/dev/proyectotest/recursos/imágenes/fb.851x315.png"
     inkscape:export-xdpi="90"
     inkscape:export-ydpi="90">
    <rect
       style="fill:#4a5867;fill-opacity:1;fill-rule:evenodd;stroke:none"
       id="rect3107"
       width="680.79999"
       height="201.66359"
       x="-841.21118"
       y="1998.2429" />
    <g
       id="g3168">
      <g
         transform="matrix(0.84848484,0,0,0.84848484,-424.73708,1442.1286)"
         id="g3111">
        <path
           sodipodi:type="arc"
           style="fill:#9db1c5;fill-opacity:1;stroke:none"
           id="path3113"
           sodipodi:cx="-9.3299789"
           sodipodi:cy="53.826801"
           sodipodi:rx="138.5143"
           sodipodi:ry="138.5143"
           d="m 129.18432,53.826801 c 0,76.499339 -62.014965,138.514299 -138.5142989,138.514299 -76.4993341,0 -138.5143011,-62.01496 -138.5143011,-138.514299 0,-76.499334 62.014967,-138.514297 138.5143011,-138.514297 76.4993339,0 138.5142989,62.014963 138.5142989,138.514297 z"
           transform="matrix(1.07209,0,0,1.0720915,139.92548,713.40596)"
           inkscape:export-filename="/Users/rotoxl/dev/proyectotest/recursos/imágenes/icon512.png"
           inkscape:export-xdpi="124.12"
           inkscape:export-ydpi="124.12" />
        <path
           inkscape:export-ydpi="124.12"
           inkscape:export-xdpi="124.12"
           inkscape:export-filename="/Users/rotoxl/dev/proyectotest/recursos/imágenes/icon512.png"
           style="fill:#4a5867;fill-opacity:1"
           inkscape:connector-curvature="0"
           d="m 186.34743,705.44927 c 0,-0.77532 0,-1.55065 -0.25844,-2.32596 -1.80909,-7.23634 -4.91036,-12.40515 -7.49478,-15.76487 -17.83238,-22.74276 -55.0478,-19.12459 -57.6322,-19.12459 0,0 0,0 -0.25844,0 -2.84285,0 -37.732297,-3.35972 -54.789367,18.60771 -4.135041,5.42724 -6.461007,11.37138 -7.494769,16.28175 -0.258441,0.77531 -0.258441,2.32596 -0.258441,3.10127 l 8.011648,145.50194 h 0 l -1.550639,17.83238 c 0.516876,1.55064 1.550639,1.2922 2.325964,1.80908 4.393489,3.61816 12.922018,2.84285 15.764859,2.58441 0.516886,0 1.033762,0 1.550649,-0.25845 2.584402,0 10.596059,0.25845 14.989535,-3.10127 1.292211,-1.03377 1.809091,-1.03377 2.325961,-2.06753 l -0.77531,-8.01165 c -1.033766,-5.16881 3.61816,-8.78697 9.30386,-8.78697 h 24.03495 c 5.94413,0 10.33761,3.61816 9.82073,9.0454 l -0.77532,8.52855 c 0.51688,1.55063 1.55065,1.2922 2.32596,2.06751 4.3935,3.61816 12.92203,2.84285 15.76488,2.58441 0.51687,0 1.03376,0 1.55063,0 2.58441,0 10.59606,0.25844 14.98956,-3.10129 1.29219,-1.03376 1.80907,-1.03376 2.32596,-2.06752 -0.51689,-6.20257 -1.03377,-12.40514 -1.55066,-18.60771 l 7.75322,-144.7266 z m -64.6101,58.40751 c -20.15836,0 -36.440093,-16.28173 -36.440093,-36.18164 0,-19.8999 16.281733,-36.18165 36.440093,-36.18165 20.15836,0 36.4401,16.28175 36.4401,36.18165 0,19.89991 -16.28174,36.18164 -36.4401,36.18164 z m 0,-57.6322 c -11.88826,0 -21.70899,9.5623 -21.70899,21.45056 0,11.88826 9.82073,21.45055 21.70899,21.45055 11.88826,0 21.70899,-9.56229 21.70899,-21.45055 0,-11.88826 -9.82073,-21.45056 -21.70899,-21.45056 z m 8.52854,36.95698 c -1.80909,0 -3.61817,-1.55064 -3.61817,-3.35972 0,-1.80909 1.55064,-3.35973 3.61817,-3.35973 1.80908,0 3.61816,1.55064 3.61816,3.35973 0,1.80908 -1.55065,3.35972 -3.61816,3.35972 z m 0,-13.69734 c -4.3935,0 -8.01165,-3.61817 -8.01165,-7.75322 0,-4.39347 3.61815,-7.7532 8.01165,-7.7532 4.39347,0 8.01165,3.61817 8.01165,7.7532 0,4.13505 -3.61818,7.75322 -8.01165,7.75322 z m -25.06873,31.78817 c -1.03375,-0.51688 -2.06751,-1.03376 -3.61817,-1.03376 -2.325961,0 -4.910358,1.03376 -6.977889,1.80908 -3.359716,1.55064 -5.168803,4.39348 -7.236329,7.23633 -1.292201,2.06752 -2.584402,4.13504 -4.393479,5.68569 -0.516887,0.51687 -1.033763,1.03375 -1.550649,1.55063 0,0 0,0 0,0 -3.359727,3.61817 -5.685691,8.2701 -7.753206,12.66359 -2.067525,4.13504 -4.393489,8.52853 -7.494777,12.14669 -4.393479,4.65193 -7.494767,10.07918 -10.854491,15.24798 -3.359725,5.42726 -6.71945,10.8545 -11.112937,15.76487 -6.461009,6.97789 -14.21422,12.40513 -22.225871,15.76486 -2.325963,1.03377 -3.618165,2.84285 -3.359725,4.91037 0,2.06752 1.292202,3.8766 3.359725,4.65193 4.393486,1.55063 8.528531,2.06752 12.922018,2.06752 0.516881,0 1.033761,0 1.550643,0 6.719449,-0.25844 19.124587,-2.06752 26.102474,-10.07918 0.775324,-1.03376 2.325964,-2.5844 4.135051,-4.13505 2.067525,-2.06751 4.135041,-4.13504 5.168803,-5.42724 7.753215,-9.30386 14.989545,-13.4389 24.810281,-17.05707 2.067521,-0.77532 3.359728,-2.84284 3.359728,-4.91037 -0.775331,-17.57394 1.2922,-40.83357 5.1688,-56.85687 z m -68.228256,95.62293 c -3.359726,0.25844 -6.20257,-0.77532 -6.461011,-2.84284 -0.258439,-1.80909 2.325964,-3.87661 5.685689,-4.13505 3.359725,-0.25844 6.202569,0.77532 6.461009,2.84285 0,2.06752 -2.325964,3.87661 -5.685687,4.13504 z m 17.832385,-5.68569 c -3.876606,1.2922 -7.49477,0.51689 -8.270092,-1.80908 -0.775322,-2.32596 1.550642,-5.16881 5.427248,-6.46101 3.876605,-1.2922 7.494771,-0.51688 8.270088,1.80908 0.775325,2.06753 -1.550639,5.16881 -5.427244,6.46101 z m 15.506423,-11.62982 c -1.550639,2.06753 -4.651927,2.58442 -6.977891,1.03376 -2.325963,-1.55063 -2.842839,-4.65193 -1.292201,-6.71944 1.550639,-2.06752 4.651928,-2.58441 6.977892,-1.03376 2.325963,1.55064 2.842839,4.65193 1.2922,6.71944 z M 251.4744,731.81018 c -7.23633,-2.32596 -13.69733,-3.10129 -19.64147,-2.5844 -9.0454,1.03377 -17.05706,5.42724 -21.19211,12.14669 -2.06752,3.61817 -3.35971,7.49477 -4.39348,11.37139 -0.77532,3.10127 -1.80909,6.461 -3.10128,9.30385 -2.06753,4.39348 -5.42725,8.01165 -9.5623,10.8545 -4.13504,2.84284 -9.04541,4.39348 -13.69734,4.65192 -0.51688,0 -1.03375,0 -1.55064,0 -4.39349,0 -8.78697,-1.03377 -12.66359,-3.10129 -4.39347,-2.32596 -8.01164,-5.68569 -10.59605,-9.56229 -4.65192,8.27009 -9.30385,16.28174 -13.95578,24.55184 -1.03376,1.80907 -2.06752,3.61816 -2.5844,5.68568 -0.77532,3.61817 0.25844,8.78697 5.42724,13.4389 3.10129,2.5844 6.9779,4.65193 12.66359,6.46102 7.75321,2.5844 16.28174,4.65193 25.84403,5.94413 8.52854,1.29219 18.09083,2.06751 25.5856,-2.58442 8.01165,-4.91037 11.62982,-14.47266 14.73111,-24.55182 2.84284,-9.30386 5.68569,-18.60771 8.52853,-27.65313 3.35972,-11.11293 8.01165,-23.51807 18.60771,-28.17 0.51687,-0.25844 1.03376,-0.51688 1.55063,-0.77531 0.25844,0 0.51689,-0.25845 0.77533,-0.25845 1.29219,-0.51688 1.80907,-1.55064 1.80907,-2.84284 -1.03376,-1.29221 -1.55064,-2.06753 -2.5844,-2.32597 z m -59.18284,85.02689 c -4.13505,0.51688 -8.01166,-1.29221 -8.27009,-3.87661 -0.25844,-2.5844 2.84284,-5.42725 7.23632,-5.94412 4.13506,-0.5169 8.01166,1.29219 8.2701,3.8766 0.25843,2.84284 -2.84284,5.42725 -7.23633,5.94413 z m 18.09082,-9.82073 c -1.55064,2.06752 -4.39348,2.58439 -6.46101,1.03376 -2.06752,-1.55066 -2.58439,-4.65193 -1.29219,-6.71946 1.55064,-2.06752 4.39348,-2.5844 6.461,-1.03376 2.06753,1.55064 2.5844,4.39349 1.2922,6.71946 z m 8.52854,-13.43891 c -1.55065,3.35972 -4.65193,5.42725 -6.97789,4.13505 -2.32597,-1.03376 -3.10129,-4.91037 -1.55065,-8.27009 1.55065,-3.35973 4.65193,-5.42726 6.97789,-4.13506 2.32597,1.03376 3.10129,4.65193 1.55065,8.2701 z m 7.23633,-19.12459 c -0.77533,3.61817 -3.61816,6.20257 -6.20258,5.42726 -2.5844,-0.77533 -3.8766,-4.13505 -2.84284,-7.75322 0.77533,-3.61817 3.61817,-6.20257 6.20257,-5.42724 2.32597,0.51688 3.61816,4.13504 2.84285,7.7532 z m 0,-13.69733 c -2.32596,0.25843 -4.65193,-1.03376 -4.91038,-3.10129 -0.25843,-1.80909 1.55066,-3.61817 4.13505,-3.8766 2.32597,-0.25845 4.65193,1.03376 4.91037,3.10127 0,1.80909 -1.80907,3.61817 -4.13504,3.87662 z m 9.04541,-14.98954 c -2.84284,2.84284 -6.46101,3.61815 -8.2701,1.80908 -1.80907,-1.80908 -0.77531,-5.42725 2.06753,-8.01165 2.84284,-2.58441 6.46102,-3.61816 8.2701,-1.80909 1.80908,1.55064 0.77531,5.16881 -2.06753,8.01166 z"
           id="path3115" />
      </g>
      <g
         transform="matrix(0.71639397,0,0,0.71639397,-254.48148,1018.2621)"
         id="g3117">
        <flowRoot
           xml:space="preserve"
           id="flowRoot3119"
           style="font-size:80px;font-style:normal;font-weight:normal;line-height:125%;letter-spacing:0px;word-spacing:0px;fill:#ffffff;fill-opacity:1;stroke:none;font-family:Sans"
           transform="matrix(0.8,0,0,0.8,-3.4703369,49.231944)"><flowRegion
             id="flowRegion3121"><rect
               id="rect3123"
               width="532.57727"
               height="332.5799"
               x="-752.79907"
               y="1705.3196"
               style="font-size:80px;fill:#ffffff" /></flowRegion><flowPara
             id="flowPara3125"
             style="font-size:80px" /><flowPara
             id="flowPara3127"
             style="font-size:40px">Tests de oposiciones, certificaciones y más</flowPara></flowRoot>        <text
           xml:space="preserve"
           style="font-size:32px;font-style:normal;font-weight:normal;line-height:125%;letter-spacing:0px;word-spacing:0px;fill:#000000;fill-opacity:1;stroke:none;font-family:Sans"
           x="-608.95471"
           y="1479.6611"
           id="text3129"
           sodipodi:linespacing="125%"><tspan
             sodipodi:role="line"
             id="tspan3131"
             x="-608.95471"
             y="1479.6611"
             style="font-size:57.59999847px;fill:#ffffff">Octopus</tspan></text>
      </g>
    </g>
  </g>
</svg>
